<svg viewBox="0 0 37 24" xmlns="http://www.w3.org/2000/svg">
<rect width="37" height="24" rx="4" fill="#2557D6"/>
<rect x="0.25" y="0.25" width="36.5" height="23.5" rx="3.75" stroke="black" stroke-opacity="0.08" stroke-width="0.5"/>
<g transform="translate(0, 5.5) scale(1)">
<path d="M0 5.88H1.78L2.18 4.94H3.07L3.47 5.88H6.97V5.16L7.28 5.88H9.09L9.41 5.15V5.88H18.09V4.34H18.25C18.37 4.35 18.41 4.36 18.41 4.55V5.88H22.9V5.52C23.26 5.71 23.82 5.88 24.56 5.88H26.45L26.86 4.94H27.76L28.15 5.88H31.79V4.99L32.34 5.88H35.26V0H32.37V0.69L31.97 0H29.01V0.69L28.63 0H24.63C23.96 0 23.37 0.09 22.9 0.34V0H20.14V0.34C19.83 0.08 19.42 0 18.96 0H8.87L8.19 1.52L7.5 0H4.32V0.69L3.97 0H1.26L0 2.8V5.88ZM11.21 5.03H10.15V1.73L8.63 5.03H7.72L6.21 1.73V5.03H4.1L3.7 4.09H1.53L1.13 5.03H0L1.86 0.82H3.41L5.17 4.81V0.82H6.87L8.23 3.68L9.48 0.82H11.21V5.03ZM3.34 3.22L2.63 1.54L1.92 3.22H3.34ZM15.45 5.03H11.98V0.82H15.45V1.69H13.02V2.45H15.39V3.32H13.02V4.16H15.45V5.03ZM20.35 1.95C20.35 2.62 19.88 2.97 19.61 3.08C19.84 3.16 20.03 3.31 20.13 3.43C20.27 3.64 20.3 3.83 20.3 4.2V5.03H19.25V4.5C19.25 4.25 19.27 3.88 19.08 3.68C18.93 3.53 18.7 3.5 18.33 3.5H17.21V5.03H16.17V0.82H18.56C19.09 0.82 19.48 0.83 19.82 1.02C20.15 1.21 20.35 1.48 20.35 1.95ZM19.03 2.58C18.89 2.66 18.72 2.66 18.52 2.66H17.25V1.73H18.53C18.72 1.73 18.9 1.74 19.03 1.8C19.16 1.87 19.25 2 19.25 2.18C19.25 2.36 19.17 2.51 19.03 2.58ZM22.01 5.03H20.95V0.82H22.01V5.03Z" fill="white"/>
</g>
</svg>
