<svg preserveAspectRatio="none" width="100%" height="100%" overflow="visible" style="display: block;" viewBox="0 0 36.9757 13.1352" fill="none" xmlns="http://www.w3.org/2000/svg">
<path id="Vector" d="M0.000237179 5.88043H1.77628L2.17674 4.94395H3.07328L3.47269 5.88043H6.96719V5.16451L7.27913 5.88355H9.09322L9.40516 5.15386V5.88048H18.0897L18.0857 4.34323H18.2537C18.3713 4.34722 18.4057 4.35773 18.4057 4.54608V5.88048H22.8974V5.52264C23.2597 5.7108 23.8232 5.88048 24.5646 5.88048H26.4543L26.8587 4.944H27.7552L28.1507 5.88048H31.7921V4.99094L32.3436 5.88048H35.2616V0H32.3737V0.694464L31.9695 0H29.0061V0.694464L28.6348 0H24.6321C23.9622 0 23.3732 0.090672 22.8975 0.343344V0H20.1353V0.343344C19.8325 0.082896 19.42 0 18.9613 0H8.86975L8.19265 1.51877L7.49729 0H4.31885V0.694464L3.96963 0H1.2589L0 2.79581V5.88034H0.000142307L0.000237179 5.88043ZM11.2112 5.03227H10.1456L10.1417 1.73016L8.63442 5.03222H7.72176L6.21055 1.72723V5.03222H4.09633L3.69692 4.09181H1.53256L1.12912 5.03222H9.4872e-05L1.86153 0.816048H3.40599L5.17388 4.80792V0.816048H6.87047L8.23084 3.67622L9.48049 0.816048H11.2112L11.2112 5.03227ZM3.34162 3.21677L2.63018 1.53595L1.92267 3.21677H3.34162ZM15.452 5.03218H11.9796V0.816H15.452V1.69397H13.0191V2.45395H15.3937V3.31819H13.019V4.16021H15.452L15.452 5.03218ZM20.3455 1.95154C20.3455 2.62373 19.8828 2.97106 19.6131 3.07531C19.8405 3.15922 20.0349 3.30754 20.1273 3.43037C20.2741 3.64008 20.2994 3.82738 20.2994 4.20394V5.03218H19.2509L19.247 4.50048C19.247 4.2468 19.272 3.88195 19.0829 3.6791C18.9311 3.53078 18.6995 3.49862 18.3252 3.49862H17.2094V5.03222H16.1699V0.816H18.5607C19.092 0.816 19.4834 0.829584 19.8194 1.01794C20.1483 1.20629 20.3455 1.48123 20.3455 1.95154ZM19.0316 2.57755C18.8886 2.66165 18.7198 2.66443 18.5173 2.66443H17.2546V1.72795H18.5345C18.7156 1.72795 18.9047 1.73582 19.0275 1.80398C19.1623 1.86542 19.2457 1.99613 19.2457 2.1767C19.2457 2.36102 19.1663 2.5093 19.0316 2.57755ZM22.0126 5.03218H20.9521V0.816H22.0126V5.03218ZM34.3251 5.03218H32.8521L30.8818 1.86768V5.03218H28.7648L28.3604 4.09176H26.201L25.8087 5.03218H24.5921C24.0869 5.03218 23.447 4.92384 23.0849 4.56586C22.7196 4.20787 22.5295 3.72298 22.5295 2.95627C22.5295 2.33098 22.6431 1.75934 23.0898 1.30762C23.4259 0.971136 23.9522 0.816 24.6685 0.816H25.6748V1.71941H24.6895C24.3102 1.71941 24.0959 1.77413 23.8897 1.96915C23.7125 2.1467 23.5909 2.48227 23.5909 2.92421C23.5909 3.37589 23.6835 3.70162 23.8766 3.91435C24.0366 4.0812 24.3275 4.13179 24.6011 4.13179H25.0679L26.5329 0.816144H28.0905L29.8505 4.80403V0.816192H31.4332L33.2604 3.75254V0.816192H34.3251V5.03218ZM28.0066 3.21682L27.2873 1.536L26.5719 3.21682H28.0066ZM36.9739 11.7647C36.7215 12.1226 36.2295 12.3041 35.5634 12.3041H33.5559V11.3998H35.5552C35.7535 11.3998 35.8923 11.3745 35.9759 11.2954C36.0548 11.2246 36.0994 11.1248 36.0988 11.0204C36.0988 10.8974 36.0483 10.7999 35.9718 10.7414C35.8964 10.677 35.7866 10.6478 35.6055 10.6478C34.6295 10.6157 33.4119 10.677 33.4119 9.34253C33.4119 8.73091 33.8124 8.08704 34.9032 8.08704H36.9737V7.24805H35.0499C34.4694 7.24805 34.0476 7.38293 33.7489 7.5924V7.248H30.9035C30.4483 7.248 29.9143 7.35739 29.6617 7.5924V7.248H24.5803V7.5924C24.176 7.30958 23.4937 7.248 23.1787 7.248H19.827V7.5924C19.5071 7.29202 18.7957 7.248 18.3619 7.248H14.6108L13.7525 8.14867L12.9485 7.248H7.34493V13.1323H12.8427L13.7272 12.2173L14.5604 13.1323L17.9494 13.1352V11.751H18.2824C18.7321 11.7577 19.2624 11.7401 19.7303 11.544V13.1321H22.5256V11.5984H22.6604C22.8325 11.5984 22.8494 11.6053 22.8494 11.772V13.1319H31.3409C31.88 13.1319 32.4435 12.9982 32.7557 12.7554V13.1319H35.4491C36.0095 13.1319 36.5569 13.0558 36.9734 12.8608L36.9735 11.7645L36.9739 11.7647ZM20.137 9.50122C20.137 10.6727 19.2355 10.9146 18.3269 10.9146H17.0299V12.3291H15.0095L13.7295 10.933L12.3993 12.3291H8.28179V8.11186H12.4625L13.7415 9.49421L15.0637 8.11186H18.3853C19.2101 8.11186 20.137 8.33328 20.137 9.50122ZM11.8727 11.442H9.31698V10.603H11.5991V9.74256H9.31698V8.97581H11.9231L13.0601 10.2048L11.8727 11.442ZM15.9906 11.9249L14.3947 10.2071L15.9906 8.54386V11.9249ZM18.3509 10.0498H17.0076V8.97581H18.363C18.7383 8.97581 18.9988 9.12413 18.9988 9.49286C18.9988 9.85762 18.7503 10.0498 18.3509 10.0498ZM25.3885 8.11186H28.8579V8.98402H26.4237V9.75072H28.7984V10.6112H26.4237V11.4502L28.8578 11.454V12.3291H25.3884L25.3885 8.11186ZM24.0547 10.3692C24.286 10.452 24.4752 10.6004 24.5638 10.7232C24.7106 10.9292 24.7318 11.1214 24.7361 11.493V12.3291H23.6924V11.8015C23.6924 11.5477 23.7176 11.1721 23.5244 10.976C23.3725 10.8249 23.1409 10.7888 22.7618 10.7888H21.6508V12.3291H20.6063V8.1119H23.0063C23.5325 8.1119 23.9158 8.13446 24.257 8.31091C24.585 8.5031 24.7914 8.76629 24.7914 9.24744C24.7913 9.9205 24.3282 10.264 24.0547 10.3692ZM23.4672 9.83611C23.3281 9.91613 23.1562 9.92304 22.954 9.92304H21.6912V8.9759H22.9711C23.1562 8.9759 23.3414 8.97974 23.4672 9.05208C23.6019 9.12038 23.6824 9.25109 23.6824 9.43142C23.6824 9.61181 23.6018 9.75715 23.4672 9.83611ZM32.8509 10.1048C33.0535 10.3078 33.1618 10.5642 33.1618 10.9982C33.1618 11.9054 32.5773 12.3289 31.5288 12.3289H29.5043V11.4246H31.5208C31.718 11.4246 31.8578 11.3994 31.9453 11.3202C32.0169 11.255 32.0681 11.1602 32.0681 11.0452C32.0681 10.9223 32.0126 10.8248 31.9412 10.7663C31.8618 10.7019 31.7522 10.6727 31.5711 10.6727C30.599 10.6405 29.3816 10.7019 29.3816 9.36749C29.3816 8.75578 29.7779 8.1119 30.8678 8.1119H32.9517V9.0095H31.0449C30.8559 9.0095 30.733 9.01646 30.6285 9.08568C30.5146 9.15394 30.4724 9.25531 30.4724 9.38899C30.4724 9.54806 30.569 9.65635 30.6999 9.7032C30.8095 9.74016 30.9273 9.75096 31.1043 9.75096L31.6639 9.76565C32.2281 9.7789 32.6155 9.87355 32.8509 10.1048ZM36.9757 8.97581H35.0812C34.8921 8.97581 34.7663 8.98272 34.6606 9.05198C34.5509 9.12029 34.5087 9.22162 34.5087 9.35544C34.5087 9.51451 34.6013 9.6227 34.736 9.66955C34.8457 9.70656 34.9634 9.71736 35.1365 9.71736L35.7 9.73195C36.2684 9.74558 36.6478 9.84034 36.8792 10.0714C36.9215 10.1036 36.9467 10.1397 36.9757 10.1758V8.97581H36.9757Z" fill="var(--fill-0, white)"/>
</svg>
