<svg preserveAspectRatio="none" width="100%" height="100%" overflow="visible" style="display: block;" viewBox="0 0 23.0001 14" fill="none" xmlns="http://www.w3.org/2000/svg">
<g id="Mastercard">
<path id="Left" fill-rule="evenodd" clip-rule="evenodd" d="M11.5 12.3278C10.282 13.3705 8.70195 14 6.97541 14C3.123 14 0 10.866 0 7C0 3.13401 3.123 0 6.97541 0C8.70195 0 10.282 0.629489 11.5 1.67224C12.7181 0.629489 14.2981 0 16.0247 0C19.8771 0 23.0001 3.13401 23.0001 7C23.0001 10.866 19.8771 14 16.0247 14C14.2981 14 12.7181 13.3705 11.5 12.3278Z" fill="var(--fill-0, #ED0006)"/>
<path id="Right" fill-rule="evenodd" clip-rule="evenodd" d="M11.5 12.3278C12.9998 11.0438 13.9508 9.13337 13.9508 7C13.9508 4.86663 12.9998 2.95617 11.5 1.67224C12.7181 0.629489 14.2981 0 16.0247 0C19.8771 0 23.0001 3.13401 23.0001 7C23.0001 10.866 19.8771 14 16.0247 14C14.2981 14 12.7181 13.3705 11.5 12.3278Z" fill="var(--fill-0, #F9A000)"/>
<path id="Middle" fill-rule="evenodd" clip-rule="evenodd" d="M11.5001 12.3277C12.9998 11.0438 13.9508 9.13334 13.9508 6.99998C13.9508 4.86663 12.9998 2.95618 11.5001 1.67225C10.0003 2.95618 9.04932 4.86663 9.04932 6.99998C9.04932 9.13334 10.0003 11.0438 11.5001 12.3277Z" fill="var(--fill-0, #FF5E00)"/>
</g>
</svg>
