<svg width="37" height="24" viewBox="0 0 37 24" fill="none" xmlns="http://www.w3.org/2000/svg">
<path d="M0 4C0 1.79086 1.79086 0 4 0H33C35.2091 0 37 1.79086 37 4V20C37 22.2091 35.2091 24 33 24H4C1.79086 24 0 22.2091 0 20V4Z" fill="white"/>
<path d="M4 0.25H33C35.0711 0.25 36.75 1.92893 36.75 4V20C36.75 22.0711 35.0711 23.75 33 23.75H4C1.92893 23.75 0.25 22.0711 0.25 20V4C0.25 1.92893 1.92893 0.25 4 0.25Z" stroke="#0C0C0C" stroke-opacity="0.08" stroke-width="0.5"/>
<path d="M10.2652 3.34998H17.0196C17.9622 3.34998 18.5512 4.13746 18.3303 5.10054L15.1837 18.8996C14.9628 19.8626 14.0154 20.6501 13.0729 20.6501H6.3185C5.37595 20.6501 4.78694 19.8626 5.00785 18.8996L8.15432 5.10054C8.37523 4.13247 9.31773 3.34998 10.2602 3.34998H10.2652Z" fill="#D10429"/>
<path d="M16.429 3.34998H24.1999C25.1424 3.34998 24.7153 4.13746 24.4944 5.10054L21.3478 18.8996C21.1269 19.8626 21.1957 20.6501 20.2532 20.6501H12.4827C11.5353 20.6501 10.9511 19.8626 11.1769 18.8996L14.3235 5.10054C14.5444 4.13247 15.4868 3.34998 16.4343 3.34998H16.4294H16.429Z" fill="#022E64"/>
<path d="M23.9272 3.34998H30.682C31.6245 3.34998 32.2136 4.13746 31.9926 5.10054L28.8461 18.8996C28.6252 19.8626 27.6777 20.6501 26.7353 20.6501H19.9809C19.0334 20.6501 18.4493 19.8626 18.6702 18.8996L21.8168 5.10054C22.0376 4.13247 22.9801 3.34998 23.9226 3.34998H23.9276H23.9272Z" fill="#076F74"/>
<path d="M22.7929 16.3589H23.431L23.6127 15.7319H22.9794L22.7929 16.3589ZM23.3034 14.6333L23.0825 15.3757C23.0825 15.3757 23.323 15.2503 23.4556 15.2102C23.5881 15.1801 23.7844 15.155 23.7844 15.155L23.9366 14.6383H23.2986L23.3034 14.6333ZM23.6225 13.5699L23.4114 14.2822C23.4114 14.2822 23.647 14.1718 23.7796 14.1368C23.9121 14.1017 24.1084 14.0917 24.1084 14.0917L24.2606 13.575H23.6274L23.6225 13.5699ZM25.0313 13.5699L24.2066 16.3538H24.4275L24.2557 16.9307H24.0348L23.9808 17.1062H23.1953L23.2494 16.9307H21.6589L21.816 16.399H21.978L22.8126 13.57L22.9795 12.9982H23.7796L23.6961 13.2841C23.6961 13.2841 23.9072 13.1286 24.1134 13.0733C24.3147 13.0182 25.4732 12.9982 25.4732 12.9982L25.3013 13.565H25.0265L25.0313 13.5699Z" fill="#FEFEFE"/>
<path d="M25.3588 12.9979H26.213L26.2228 13.3239C26.2179 13.3791 26.2621 13.4042 26.3651 13.4042H26.537L26.3799 13.941H25.9184C25.5208 13.9711 25.3686 13.7955 25.3784 13.5999L25.3637 13.0029L25.3588 12.9979ZM25.464 15.5515H24.6491L24.7865 15.075H25.7192L25.8517 14.6386H24.9338L25.0908 14.1019H27.6434L27.4863 14.6386H26.6273L26.4948 15.075H27.3538L27.2114 15.5515H26.2836L26.1168 15.7522H26.4947L26.588 16.3541C26.5978 16.4143 26.5978 16.4544 26.6174 16.4795C26.6371 16.4996 26.75 16.5096 26.8138 16.5096H26.9267L26.75 17.0965H26.4603C26.4162 17.0965 26.3475 17.0915 26.2542 17.0915C26.1658 17.0814 26.107 17.0313 26.048 17.0012C25.994 16.9761 25.9155 16.9109 25.8959 16.7955L25.8075 16.1936L25.3854 16.7855C25.2528 16.9711 25.0712 17.1166 24.7619 17.1166H24.1728L24.3299 16.5948H24.5557C24.6196 16.5948 24.6785 16.5698 24.7227 16.5447C24.7669 16.5246 24.8061 16.5046 24.8454 16.4394L25.464 15.5515ZM16.5508 14.2459H18.7057L18.5486 14.7726H17.6896L17.5571 15.219H18.4407L18.2787 15.7607H17.4L17.184 16.488C17.1595 16.5683 17.3951 16.5783 17.4786 16.5783L17.9203 16.5181L17.7436 17.1201H16.752C16.6735 17.1201 16.6146 17.11 16.5262 17.09C16.4427 17.0699 16.4035 17.0298 16.3691 16.9746C16.3347 16.9144 16.2758 16.8693 16.315 16.7388L16.5998 15.7758H16.1089L16.2709 15.2241H16.7617L16.8943 14.7777H16.4035L16.5606 14.2509L16.5508 14.2459ZM18.0396 13.2938H18.9232L18.7612 13.8406H17.5536L17.4211 13.9559C17.3622 14.0111 17.3475 13.9911 17.2738 14.0312C17.2052 14.0662 17.0628 14.1365 16.8762 14.1365H16.4884L16.6455 13.6098H16.7633C16.8615 13.6098 16.9303 13.5997 16.9646 13.5797C17.0039 13.5547 17.0481 13.4995 17.0922 13.4091L17.313 12.9979H18.1918L18.0396 13.2988V13.2938ZM19.705 14.1967C19.705 14.1967 19.9455 13.9711 20.3579 13.9008C20.4511 13.8808 21.0402 13.8907 21.0402 13.8907L21.1286 13.5898H19.8866L19.7049 14.2018L19.705 14.1967ZM20.8733 14.4274H19.6411L19.5675 14.6832H20.6376C20.7652 14.6682 20.7898 14.6882 20.7996 14.6782L20.8781 14.4274H20.8733ZM19.273 13.0029H20.0241L19.9161 13.3892C19.9161 13.3892 20.1517 13.1936 20.3186 13.1233C20.4855 13.0631 20.8585 13.0029 20.8585 13.0029L22.0759 12.9979L21.6587 14.4124C21.59 14.6532 21.5065 14.8087 21.4574 14.8839C21.4133 14.9542 21.3592 15.0193 21.2513 15.0795C21.1482 15.1347 21.0548 15.1698 20.9666 15.1749C20.888 15.1798 20.7604 15.1849 20.5935 15.1849H19.4203L19.0914 16.3034C19.062 16.4138 19.0472 16.4689 19.0668 16.499C19.0816 16.5241 19.1257 16.5542 19.1797 16.5542L19.6951 16.504L19.5184 17.116H18.9392C18.7526 17.116 18.6201 17.111 18.5268 17.1059C18.4385 17.0959 18.3452 17.1059 18.2814 17.0558C18.2274 17.0056 18.144 16.9404 18.1488 16.8752C18.1538 16.815 18.1783 16.7146 18.2176 16.5742L19.273 13.0029Z" fill="#FEFEFE"/>
<path d="M21.4615 15.2539L21.3928 15.595C21.3634 15.7003 21.3388 15.7806 21.2602 15.8508C21.1768 15.921 21.0835 15.9963 20.8578 15.9963L20.4406 16.0163L20.4356 16.3975C20.4307 16.5028 20.4602 16.4928 20.4749 16.5128C20.4945 16.5329 20.5092 16.5379 20.5289 16.548L20.6614 16.5379L21.0591 16.5179L20.8921 17.0797H20.4356C20.1166 17.0797 19.876 17.0696 19.8024 17.0094C19.7238 16.9592 19.714 16.899 19.714 16.7887L19.7434 15.2939H20.4749L20.4651 15.5999H20.6418C20.7007 15.5999 20.745 15.5949 20.7694 15.5798C20.7939 15.5647 20.8087 15.5397 20.8185 15.5046L20.8921 15.2638H21.4665L21.4615 15.2539ZM11.0555 7.76593C11.031 7.88631 10.5598 10.0983 10.5598 10.0983C10.4566 10.5447 10.383 10.8658 10.1376 11.0715C9.99522 11.1918 9.82829 11.247 9.63689 11.247C9.32761 11.247 9.15091 11.0915 9.12145 10.7956L9.11652 10.6953C9.11652 10.6953 9.20978 10.0983 9.20978 10.0934C9.20978 10.0934 9.70069 8.07692 9.78906 7.81105C9.79395 7.79603 9.79395 7.78599 9.79395 7.78095C8.83669 7.79103 8.66493 7.78095 8.65511 7.76593C8.65017 7.78599 8.62565 7.91137 8.62565 7.91137L8.12492 10.1837L8.08071 10.3743L7.99731 11.0063C7.99731 11.1919 8.03166 11.3474 8.10533 11.4728C8.33601 11.8841 8.98891 11.9443 9.35706 11.9443C9.83323 11.9443 10.2799 11.8389 10.5793 11.6534C11.1046 11.3373 11.242 10.8408 11.3599 10.4044L11.4188 10.1786C11.4188 10.1786 11.9244 8.087 12.0128 7.81614C12.0176 7.80107 12.0176 7.79103 12.0226 7.78604C11.3255 7.79103 11.1242 7.78604 11.0555 7.77097V7.76593ZM13.8556 11.9238C13.5169 11.9188 13.3942 11.9188 12.9966 11.9389L12.9818 11.9088C13.0162 11.7532 13.0555 11.6028 13.0849 11.4473L13.134 11.2366C13.2076 10.9106 13.2764 10.5243 13.2862 10.409C13.296 10.3388 13.3156 10.1632 13.1193 10.1632C13.0358 10.1632 12.9524 10.2033 12.864 10.2435C12.8149 10.419 12.7216 10.9106 12.6725 11.1313C12.5744 11.6028 12.5695 11.658 12.5253 11.8887L12.4959 11.9188C12.1473 11.9138 12.0246 11.9138 11.6221 11.9339L11.6024 11.8987C11.6712 11.6178 11.735 11.3369 11.7988 11.056C11.9657 10.2986 12.0099 10.0077 12.054 9.62147L12.0884 9.6014C12.4811 9.54625 12.5744 9.53118 13.0015 9.44593L13.0358 9.48606L12.972 9.72683C13.0456 9.68171 13.1144 9.63654 13.188 9.6014C13.3893 9.50108 13.6102 9.47099 13.7329 9.47099C13.9194 9.47099 14.1256 9.52619 14.209 9.74689C14.2876 9.94249 14.2385 10.1833 14.1305 10.6598L14.0765 10.9006C13.9685 11.4323 13.9489 11.5275 13.8899 11.8887L13.8507 11.9188L13.8556 11.9238ZM15.234 11.9251C15.0278 11.9251 14.8953 11.9201 14.7677 11.9251C14.64 11.9251 14.5173 11.9352 14.3259 11.9402L14.3161 11.9251L14.3062 11.9051C14.3602 11.7044 14.3848 11.6342 14.4143 11.564C14.4388 11.4938 14.4633 11.4235 14.5124 11.2179C14.5713 10.952 14.6106 10.7665 14.6351 10.6009C14.6646 10.4454 14.6793 10.31 14.699 10.1545L14.7137 10.1445L14.7284 10.1295C14.9346 10.0994 15.0622 10.0793 15.1948 10.0592C15.3273 10.0392 15.4647 10.0141 15.6758 9.97398L15.6856 9.99404L15.6905 10.0141L15.5728 10.5107C15.5335 10.6762 15.4942 10.8417 15.4599 11.0073C15.3862 11.3584 15.3519 11.4888 15.3372 11.5841C15.3175 11.6744 15.3125 11.7195 15.2831 11.9001L15.2635 11.9151L15.2438 11.9302L15.234 11.9251ZM17.4133 10.6927C17.3986 10.783 17.32 11.1191 17.217 11.2596C17.1433 11.3649 17.0598 11.4301 16.9617 11.4301C16.9322 11.4301 16.7653 11.4301 16.7604 11.1743C16.7604 11.0489 16.785 10.9184 16.8144 10.778C16.9028 10.3717 17.0108 10.0357 17.2808 10.0357C17.4918 10.0357 17.5066 10.2865 17.4133 10.6927ZM18.3018 10.7329C18.4195 10.2012 18.3263 9.95036 18.2134 9.79988C18.0367 9.56915 17.7226 9.49393 17.3986 9.49393C17.2022 9.49393 16.7408 9.51399 16.3775 9.85508C16.1174 10.1008 15.9947 10.4369 15.9259 10.758C15.8522 11.084 15.7688 11.6709 16.299 11.8916C16.4609 11.9618 16.6966 11.9818 16.8488 11.9818C17.2366 11.9818 17.6342 11.8715 17.9336 11.5505C18.1643 11.2897 18.2674 10.8984 18.3067 10.7329H18.3018ZM26.576 11.9847C26.1637 11.9797 26.0459 11.9797 25.6678 11.9998L25.6433 11.9697C25.7464 11.5734 25.8494 11.1721 25.9427 10.7708C26.0605 10.2492 26.0899 10.0285 26.1293 9.72251L26.1587 9.69745C26.5661 9.63726 26.679 9.62223 27.1061 9.54198L27.1159 9.57707C27.0374 9.90812 26.9638 10.2342 26.8852 10.5602C26.7281 11.2474 26.6741 11.5985 26.6153 11.9597L26.576 11.9898V11.9847Z" fill="#FEFEFE"/>
<path d="M25.9829 10.7597C25.9633 10.8449 25.8847 11.186 25.7816 11.3265C25.7129 11.4268 25.546 11.492 25.4528 11.492C25.4233 11.492 25.2613 11.492 25.2515 11.2412C25.2515 11.1158 25.276 10.9854 25.3055 10.8449C25.3938 10.4487 25.5019 10.1126 25.7718 10.1126C25.9829 10.1126 26.0762 10.3584 25.9829 10.7647V10.7597ZM26.7929 10.7998C26.9106 10.2681 26.4296 10.7547 26.356 10.5791C26.2382 10.3032 26.3117 9.75146 25.8406 9.56589C25.6589 9.49063 25.2319 9.58596 24.8686 9.92704C24.6133 10.1678 24.4857 10.5039 24.417 10.8249C24.3433 11.1459 24.2599 11.7378 24.7851 11.9435C24.9521 12.0187 25.1042 12.0388 25.2564 12.0287C25.7866 11.9986 26.1891 11.181 26.4886 10.86C26.7192 10.6042 26.7585 10.9553 26.7929 10.7998ZM20.6291 11.9237C20.2904 11.9186 20.1725 11.9186 19.7749 11.9387L19.7602 11.9086C19.7946 11.7531 19.8338 11.6026 19.8681 11.4471L19.9123 11.2364C19.986 10.9104 20.0596 10.5242 20.0645 10.4088C20.0743 10.3386 20.0939 10.1631 19.9025 10.1631C19.819 10.1631 19.7308 10.2031 19.6473 10.2433C19.6031 10.4189 19.5049 10.9104 19.4558 11.1311C19.3625 11.6026 19.3527 11.6578 19.3085 11.8886L19.2791 11.9186C18.9306 11.9136 18.8078 11.9136 18.4053 11.9337L18.3857 11.8985C18.4544 11.6177 18.5182 11.3368 18.5821 11.0559C18.749 10.2984 18.7883 10.0075 18.8373 9.62128L18.8667 9.60122C19.2595 9.54607 19.3577 9.531 19.7798 9.44575L19.8142 9.48588L19.7553 9.72664C19.824 9.68152 19.8976 9.63636 19.9664 9.60122C20.1676 9.5009 20.3885 9.4708 20.5112 9.4708C20.6978 9.4708 20.8991 9.526 20.9873 9.74671C21.0659 9.94231 21.012 10.1831 20.9039 10.6596L20.8499 10.9004C20.737 11.4321 20.7223 11.5274 20.6633 11.8885L20.6241 11.9186L20.6291 11.9237ZM23.5701 7.77074L23.2854 7.77578C22.5491 7.78581 22.2545 7.78077 22.1368 7.76575C22.1269 7.82095 22.1073 7.91623 22.1073 7.91623C22.1073 7.91623 21.8422 9.16019 21.8422 9.16519C21.8422 9.16519 21.2139 11.8136 21.1844 11.939C21.8275 11.929 22.0877 11.929 22.2006 11.9441C22.2252 11.8186 22.3724 11.0813 22.3773 11.0813C22.3773 11.0813 22.5049 10.5396 22.5099 10.5195C22.5099 10.5195 22.5491 10.4643 22.5883 10.4393H22.6473C23.202 10.4393 23.8254 10.4393 24.3163 10.0731C24.6501 9.82231 24.8759 9.44608 24.979 8.99464C25.0035 8.88429 25.0232 8.75388 25.0232 8.61847C25.0232 8.44288 24.9888 8.27239 24.8906 8.13693C24.6402 7.78077 24.1444 7.77578 23.5701 7.77074ZM23.9383 9.06991C23.8794 9.34576 23.7027 9.58154 23.4769 9.69189C23.2903 9.78717 23.0645 9.7972 22.8289 9.7972H22.6767L22.6865 9.73701C22.6865 9.73701 22.9664 8.49304 22.9664 8.49808L22.9761 8.43285L22.9811 8.38269L23.094 8.39277C23.094 8.39277 23.6732 8.44288 23.683 8.44288C23.9088 8.53317 24.007 8.76391 23.9383 9.06991ZM29.9726 9.48588L29.9383 9.44575C29.521 9.531 29.4425 9.54607 29.0595 9.60127L29.0302 9.63131C29.0302 9.63635 29.0253 9.6414 29.0253 9.65138V9.64639C28.7405 10.3235 28.7454 10.1781 28.5147 10.7098C28.5147 10.6847 28.5147 10.6697 28.5098 10.6445L28.4509 9.49087L28.4166 9.45074C27.9747 9.53604 27.9649 9.55106 27.5624 9.60626L27.5329 9.63636C27.528 9.65138 27.528 9.66645 27.528 9.68148L27.5329 9.68652C27.582 9.95234 27.5722 9.89215 27.6213 10.3085C27.6458 10.5141 27.6753 10.7198 27.6998 10.9205C27.7391 11.2615 27.7636 11.427 27.8127 11.9437C27.5378 12.4051 27.474 12.5807 27.2089 12.9869L27.2236 13.0271C27.6213 13.0121 27.7097 13.0121 28.0042 13.0121L28.068 12.9368C28.2889 12.4504 29.9776 9.49092 29.9776 9.49092L29.9726 9.48588ZM15.6128 9.81813C15.8386 9.65762 15.868 9.43692 15.6766 9.32157C15.4852 9.20618 15.1465 9.24132 14.9206 9.40183C14.6948 9.55735 14.6703 9.778 14.8617 9.89839C15.0483 10.0088 15.387 9.97864 15.6128 9.81813Z" fill="#FEFEFE"/>
<path d="M28.0029 13.0032L27.6739 13.5801C27.5709 13.7757 27.3745 13.9262 27.0702 13.9262L26.5449 13.9161L26.6971 13.3945H26.8002C26.8542 13.3945 26.8934 13.3895 26.9229 13.3744C26.9523 13.3644 26.9671 13.3443 26.9916 13.3142L27.188 12.9982H28.0078L28.0029 13.0032Z" fill="#FEFEFE"/>
</svg>
