<svg width="37" height="24" viewBox="0 0 37 24" fill="none" xmlns="http://www.w3.org/2000/svg">
<path d="M0 4C0 1.79086 1.79086 0 4 0H33C35.2091 0 37 1.79086 37 4V20C37 22.2091 35.2091 24 33 24H4C1.79086 24 0 22.2091 0 20V4Z" fill="black"/>
<path d="M4 0.25H33C35.0711 0.25 36.75 1.92893 36.75 4V20C36.75 22.0711 35.0711 23.75 33 23.75H4C1.92893 23.75 0.25 22.0711 0.25 20V4C0.25 1.92893 1.92893 0.25 4 0.25Z" stroke="#0C0C0C" stroke-opacity="0.08" stroke-width="0.5"/>
<path d="M7.93367 8.70722C8.25624 8.59682 8.60252 8.53922 8.96303 8.53922C10.5379 8.53922 11.8519 9.67206 12.1507 11.1744L14.3802 10.7136C13.8679 8.16002 11.6384 6.23517 8.96303 6.23517C8.35111 6.23517 7.7629 6.33602 7.21265 6.52317L7.93367 8.70722Z" fill="#FFF100"/>
<path d="M5.301 16.0224L6.80946 14.2944C6.13587 13.6896 5.71369 12.8112 5.71369 11.8272C5.71369 10.8481 6.13587 9.96481 6.80946 9.36481L5.301 7.64166C4.15779 8.66881 3.43677 10.1617 3.43677 11.8321C3.43677 13.4976 4.15779 14.9952 5.301 16.0224Z" fill="#00A3DF"/>
<path d="M12.1506 12.4896C11.847 13.992 10.5378 15.12 8.96289 15.12C8.60238 15.12 8.2561 15.0624 7.92879 14.952L7.20776 17.136C7.75802 17.3232 8.35097 17.424 8.96289 17.424C11.6383 17.424 13.8678 15.504 14.3801 12.9504L12.1506 12.4896Z" fill="#EE4023"/>
<path d="M21.8085 14.0352C21.4385 14.4001 20.9405 14.6208 20.3902 14.6112C20.0107 14.6064 19.6597 14.4912 19.3656 14.2992L18.6255 15.4897C19.1331 15.8112 19.7261 16.0032 20.3712 16.0128C21.3057 16.0272 22.1595 15.6528 22.781 15.0432L21.8085 14.0352ZM20.4708 9.18241C18.6114 9.15361 17.0744 10.6608 17.046 12.5424C17.0365 13.248 17.2357 13.9104 17.5915 14.4576L23.7012 11.8128C23.3597 10.3296 22.0505 9.21116 20.4708 9.18241ZM18.4453 12.8112C18.4359 12.7344 18.4311 12.6528 18.4311 12.5712C18.4501 11.4624 19.3514 10.5744 20.4471 10.5936C21.0448 10.6032 21.5761 10.8768 21.9319 11.3088L18.4453 12.8112ZM25.6224 7.64636V14.2368L26.7514 14.712L26.2153 16.0128L25.0958 15.5424C24.8444 15.432 24.6737 15.264 24.5456 15.072C24.4222 14.88 24.3273 14.6111 24.3273 14.256V7.64636H25.6224ZM29.6972 10.6944C29.8964 10.6272 30.1051 10.5936 30.3281 10.5936C31.291 10.5936 32.088 11.2847 32.2729 12.2016L33.6344 11.9184C33.3213 10.3584 31.9599 9.18716 30.3281 9.18716C29.9534 9.18716 29.5928 9.24961 29.2608 9.36001L29.6972 10.6944ZM28.0891 15.1536L29.0093 14.1024C28.5966 13.7328 28.3405 13.1952 28.3405 12.5952C28.3405 11.9952 28.6014 11.4576 29.0093 11.0928L28.0891 10.0416C27.3918 10.6656 26.9506 11.5824 26.9506 12.6C26.9506 13.6176 27.3918 14.5296 28.0891 15.1536ZM32.2729 13.0031C32.088 13.92 31.2863 14.6111 30.3281 14.6111C30.1099 14.6111 29.8964 14.5727 29.6972 14.5056L29.256 15.84C29.5928 15.9551 29.9533 16.0176 30.3281 16.0176C31.9599 16.0176 33.3213 14.8464 33.6344 13.2864L32.2729 13.0031Z" fill="white"/>
</svg>
