<svg width="37" height="24" viewBox="0 0 37 24" fill="none" xmlns="http://www.w3.org/2000/svg">
<g clip-path="url(#clip0_1367_7783)">
<path d="M0 4C0 1.79086 1.79086 0 4 0H33C35.2091 0 37 1.79086 37 4V20C37 22.2091 35.2091 24 33 24H4C1.79086 24 0 22.2091 0 20V4Z" fill="white"/>
<g clip-path="url(#clip1_1367_7783)">
<rect width="37" height="24" rx="4" fill="#334553"/>
<path fill-rule="evenodd" clip-rule="evenodd" d="M0 4C0 1.79086 1.79086 0 4 0H33C35.2091 0 37 1.79086 37 4V20C37 22.2091 35.2091 24 33 24H4C1.79086 24 0 22.2091 0 20V4ZM4 1.5C2.61929 1.5 1.5 2.61929 1.5 4V20C1.5 21.3807 2.61929 22.5 4 22.5H19.1779C30.9732 15.814 29.9733 5.58393 28.6716 1.5H4Z" fill="#FEFEFE"/>
<path d="M30.2867 1.04044C30.8804 1.15444 31.3935 1.3947 31.834 1.80593C31.8516 1.82221 31.8691 1.8385 31.8872 1.85527C32.2058 2.15873 32.4347 2.53169 32.6188 2.92625C32.6251 2.93969 32.6314 2.95313 32.6379 2.96697C33.084 3.93472 33.2507 5.0145 33.2517 6.07111C33.2517 6.08692 33.2517 6.10272 33.2517 6.119C33.2513 6.65983 33.2073 7.19963 33.1486 7.7371C33.1471 7.75108 33.1456 7.76505 33.144 7.77944C33.121 7.98735 33.0908 8.19396 33.0584 8.40062C33.0506 8.45039 33.0428 8.50018 33.0352 8.54997C32.9649 9.00342 32.8863 9.45385 32.791 9.90285C32.7757 9.97711 32.7619 10.0515 32.7482 10.1261C32.7142 10.309 32.6691 10.4891 32.6238 10.6695C32.6194 10.6869 32.615 10.7044 32.6105 10.7224C32.2831 12.0311 31.8603 13.3124 31.2954 14.5412C31.2601 14.6182 31.2256 14.6955 31.1916 14.773C31.1379 14.8951 31.0822 15.0148 31.0172 15.1315C30.949 15.2563 30.8836 15.3821 30.82 15.5092C30.6991 15.7507 30.5699 15.9858 30.4333 16.219C30.4015 16.2737 30.3703 16.3286 30.3392 16.3837C30.1124 16.785 29.866 17.1731 29.5971 17.5484C29.5867 17.5628 29.5764 17.5773 29.5657 17.5922C29.3504 17.8919 29.1229 18.1817 28.8832 18.4628C28.8217 18.5354 28.7657 18.6083 28.7141 18.688C29.1449 18.4581 29.5399 18.1951 29.8914 17.8574C29.9048 17.8446 29.9182 17.8319 29.9319 17.8187C30.0992 17.6585 30.2582 17.498 30.4016 17.3166C30.4302 17.2831 30.4588 17.2497 30.4874 17.2164C30.5806 17.1046 30.6622 16.986 30.7444 16.8664C30.7831 16.8103 30.8232 16.7558 30.8651 16.7021C30.9138 16.6445 30.9138 16.6445 30.9314 16.5826C30.9443 16.5826 30.9573 16.5826 30.9706 16.5826C30.9729 16.5715 30.9751 16.5604 30.9774 16.549C30.9915 16.501 31.0112 16.4667 31.0381 16.4244C31.0488 16.4071 31.0596 16.3899 31.0706 16.3721C31.083 16.3523 31.0953 16.3325 31.108 16.3121C31.3823 15.8643 31.634 15.4031 31.8748 14.937C31.8935 14.9007 31.9124 14.8645 31.9312 14.8282C32.1195 14.4649 32.2978 14.0985 32.4619 13.7238C32.4676 13.7109 32.4732 13.698 32.4791 13.6847C32.8721 12.7899 33.2102 11.8661 33.4626 10.923C33.4753 10.8764 33.488 10.8297 33.5007 10.7831C33.9328 9.1884 34.1522 7.5569 34.18 5.90693C34.1809 5.85928 34.1817 5.81163 34.1826 5.76398C34.1846 5.64865 34.1867 5.53333 34.1886 5.41799C34.5129 5.47711 34.7341 5.74509 34.9146 5.99747C34.9237 6.01022 34.9329 6.02297 34.9423 6.0361C35.4538 6.7576 35.7667 7.54796 35.919 8.41316C35.922 8.43023 35.9251 8.44731 35.9282 8.4649C35.9855 8.80886 36.0012 9.15287 35.9999 9.50089C35.9999 9.52125 35.9999 9.54161 35.9998 9.56259C35.9984 10.1431 35.9538 10.7172 35.8564 11.29C35.8526 11.3124 35.8489 11.3348 35.8449 11.3579C35.8178 11.5159 35.7888 11.6735 35.7583 11.8309C35.7529 11.8593 35.7529 11.8593 35.7473 11.8884C35.5328 12.9854 35.1731 14.0426 34.6988 15.0566C34.6918 15.0716 34.6849 15.0866 34.6777 15.102C34.5592 15.3575 34.4261 15.6036 34.2867 15.8486C34.2769 15.8659 34.2671 15.8832 34.257 15.901C34.1178 16.1461 33.9713 16.3857 33.8158 16.6212C33.8062 16.6358 33.7966 16.6503 33.7867 16.6653C33.5809 16.9758 33.361 17.2757 33.129 17.5677C33.1117 17.5897 33.0945 17.6117 33.0772 17.6337C32.9071 17.8498 32.7269 18.0566 32.5402 18.259C32.5058 18.2966 32.4721 18.3346 32.4386 18.3729C32.2387 18.5986 32.0301 18.8226 31.799 19.0176C31.7558 19.0547 31.7136 19.0929 31.6716 19.1313C31.5716 19.2225 31.4698 19.3102 31.3635 19.3943C31.3196 19.4291 31.276 19.4643 31.2326 19.4998C31.0471 19.6511 30.8555 19.7904 30.6567 19.9242C30.643 19.9335 30.6293 19.9429 30.6152 19.9525C30.1987 20.2358 29.758 20.4692 29.3038 20.6872C29.2551 20.7107 29.2069 20.7349 29.1587 20.7594C29.0812 20.7977 29.001 20.8254 28.9189 20.8526C28.8158 20.887 28.7158 20.9243 28.616 20.9673C28.4701 21.0256 28.3233 21.0765 28.1726 21.1213C28.0991 21.1431 28.0257 21.1652 27.9525 21.1882C27.9293 21.1953 27.9061 21.2025 27.8822 21.2098C27.7993 21.2425 27.7285 21.2855 27.6545 21.3343C28.0353 21.3006 28.4047 21.2344 28.7781 21.1563C28.8365 21.1442 28.895 21.1325 28.9537 21.1213C29.5157 21.0108 30.0615 20.8023 30.5782 20.5616C30.5951 20.5538 30.612 20.546 30.6294 20.5379C31.063 20.3354 31.4716 20.0942 31.8536 19.8083C31.8655 19.7995 31.8774 19.7906 31.8897 19.7815C32.09 19.6331 32.285 19.4791 32.4701 19.3126C32.4976 19.288 32.5253 19.2636 32.5536 19.2399C32.6659 19.1453 32.7706 19.0438 32.8748 18.9407C32.9045 18.9114 32.9344 18.8821 32.9642 18.8529C33.0691 18.7497 33.1702 18.6446 33.2664 18.5335C33.2864 18.5111 33.3065 18.4888 33.3266 18.4665C33.4743 18.3018 33.6121 18.1314 33.7458 17.9555C33.7749 17.9175 33.8043 17.8798 33.8339 17.8422C34.2488 17.3113 34.5978 16.73 34.9146 16.1383C34.9329 16.1044 34.9512 16.0704 34.9696 16.0365C35.0103 15.9611 35.0508 15.8855 35.0912 15.8099C35.1041 15.8099 35.1171 15.8099 35.1304 15.8099C35.5451 16.7336 35.6596 17.6278 35.307 18.5914C35.1141 19.0806 34.8154 19.5169 34.4829 19.9242C34.4687 19.9417 34.4687 19.9417 34.4541 19.9595C34.3129 20.1303 34.1573 20.2873 33.9997 20.4433C33.9903 20.4527 33.9808 20.4621 33.9711 20.4718C33.8411 20.6008 33.7053 20.719 33.5607 20.8321C33.5363 20.8518 33.5119 20.8717 33.4876 20.8916C32.4385 21.7405 31.1074 22.2493 29.8129 22.6091C29.8003 22.6126 29.7876 22.6162 29.7745 22.6198C29.3662 22.7336 28.9565 22.8154 28.5375 22.8795C28.5123 22.8834 28.4872 22.8873 28.4612 22.8913C27.8456 22.9842 27.2306 23.0014 26.6091 22.9999C26.52 22.9997 26.4309 22.9998 26.3417 22.9998C26.1882 22.9999 26.0346 22.9997 25.8811 22.9995C25.6591 22.9992 25.4371 22.9991 25.2151 22.9991C24.8547 22.999 24.4943 22.9987 24.1339 22.9983C23.7843 22.998 23.4347 22.9977 23.0851 22.9975C23.0634 22.9975 23.0418 22.9975 23.0195 22.9975C22.9109 22.9975 22.8024 22.9974 22.6938 22.9974C21.7966 22.997 20.8993 22.9963 20.002 22.9954C19.9993 22.9492 19.9993 22.9492 20.002 22.8988C20.0611 22.8544 20.1274 22.8275 20.1956 22.7989C20.2143 22.791 20.233 22.7831 20.2523 22.775C20.2725 22.7665 20.2927 22.7579 20.3135 22.7492C21.0607 22.4292 21.7813 22.0519 22.4601 21.6075C22.4916 21.587 22.5232 21.5666 22.5548 21.5462C22.8717 21.3409 23.175 21.1183 23.4751 20.89C23.4886 20.8798 23.5021 20.8695 23.516 20.8589C23.6716 20.7406 23.8234 20.6183 23.9726 20.4922C24.0052 20.4647 24.038 20.4375 24.0709 20.4103C24.2371 20.2722 24.3962 20.1275 24.5541 19.9802C24.6059 19.9321 24.6581 19.8844 24.7103 19.8367C24.8761 19.6853 25.0394 19.5333 25.1865 19.364C25.226 19.3204 25.2675 19.2795 25.3097 19.2385C25.3763 19.1737 25.439 19.1072 25.5 19.0373C25.5396 18.9922 25.5804 18.9482 25.6212 18.9041C25.6977 18.8206 25.7703 18.7347 25.8421 18.6473C25.8824 18.5989 25.9234 18.5512 25.9648 18.5038C26.0795 18.3723 26.1868 18.2361 26.293 18.0979C26.3373 18.0403 26.3822 17.9832 26.4278 17.9266C26.5685 17.7514 26.7006 17.5726 26.8273 17.3873C26.8866 17.3007 26.9478 17.2156 27.0095 17.1306C27.1682 16.9109 27.3148 16.6837 27.4576 16.4536C27.5041 16.3789 27.551 16.3044 27.5981 16.23C27.6065 16.2168 27.6149 16.2035 27.6235 16.1899C27.667 16.1215 27.7113 16.054 27.7575 15.9874C27.8087 15.9127 27.8523 15.8353 27.8954 15.7559C27.9194 15.712 27.9437 15.6684 27.9686 15.6249C28.2268 15.1731 28.4717 14.7151 28.6945 14.2453C28.7071 14.2189 28.7198 14.1925 28.7325 14.1661C28.7598 14.109 28.7869 14.0517 28.8137 13.9944C28.8269 13.9661 28.8401 13.9379 28.8534 13.9098C29.0327 13.5283 29.1962 13.1414 29.3506 12.7496C29.3556 12.7368 29.3607 12.724 29.3659 12.7108C29.4674 12.4537 29.4674 12.4537 29.5468 12.1894C29.5655 12.1202 29.5873 12.055 29.6155 11.989C29.6664 11.8687 29.6995 11.7439 29.7344 11.6184C29.759 11.5314 29.7863 11.4464 29.8166 11.3612C29.9434 10.9933 30.0297 10.6133 30.1126 10.234C30.1263 10.1721 30.1408 10.1104 30.1555 10.0487C30.2457 9.66873 30.3113 9.2851 30.3747 8.90003C30.3812 8.86066 30.3878 8.82131 30.3944 8.78195C30.4393 8.5115 30.4728 8.24013 30.5021 7.96769C30.5037 7.95341 30.5053 7.93913 30.5069 7.92442C30.5752 7.30244 30.5862 6.67919 30.5855 6.05421C30.5855 6.03523 30.5855 6.01624 30.5855 5.99668C30.5855 5.39489 30.5734 4.79924 30.4997 4.2011C30.4977 4.18499 30.4958 4.16889 30.4938 4.1523C30.4676 3.93602 30.4362 3.72083 30.4016 3.50572C30.3979 3.48202 30.3943 3.45831 30.3905 3.43388C30.2926 2.80168 30.1352 2.17693 29.9296 1.57044C29.9232 1.55129 29.9167 1.53215 29.9101 1.51242C29.8982 1.47704 29.886 1.44174 29.8734 1.40656C29.8363 1.29758 29.8107 1.18687 29.8326 1.07193C29.9199 0.947146 30.1582 1.01784 30.2867 1.04044Z" fill="#D8C36E"/>
<path d="M15.2974 9.1554C15.3398 9.15583 15.3821 9.1554 15.4245 9.15489C15.5959 9.15445 15.7573 9.16107 15.8943 9.27442C15.9856 9.37158 16.0418 9.4944 16.1011 9.61246C16.1134 9.63663 16.1257 9.66078 16.1381 9.68494C16.2336 9.87262 16.3273 10.0612 16.4214 10.2496C16.4277 10.2622 16.434 10.2748 16.4405 10.2878C16.5047 10.4162 16.5688 10.5447 16.6327 10.6733C16.8623 11.1481 16.8623 11.1481 17.1199 11.6079C17.1307 11.5856 17.1415 11.5634 17.1526 11.5404C17.3907 11.0507 17.631 10.5623 17.8756 10.0758C17.8947 10.0378 17.9137 9.99991 17.9328 9.96197C17.9464 9.93475 17.9464 9.93475 17.9604 9.90697C18.005 9.81762 18.0488 9.72797 18.091 9.63743C18.1031 9.61139 18.1031 9.61139 18.1155 9.58482C18.1305 9.55235 18.1455 9.51982 18.1602 9.48722C18.2227 9.35191 18.2894 9.26362 18.4199 9.18586C18.536 9.14711 18.6677 9.15889 18.7896 9.15773C18.8237 9.1573 18.8578 9.15662 18.8919 9.15568C19.246 9.14601 19.246 9.14601 19.3821 9.24913C19.5589 9.42148 19.5388 9.64009 19.5449 9.87268C19.5461 9.9078 19.5474 9.94292 19.5488 9.97804C19.5557 10.1702 19.5598 10.3623 19.5638 10.5545C19.5763 11.1616 19.5978 11.7681 19.6211 12.3748C19.6276 12.5448 19.6341 12.7149 19.6405 12.885C19.643 12.9518 19.6456 13.0185 19.6482 13.0853C19.6548 13.2578 19.6613 13.4303 19.663 13.6028C19.6633 13.6252 19.6635 13.6476 19.6637 13.6707C19.6557 13.7922 19.6084 13.8761 19.5311 13.9673C19.3983 14.0776 19.3004 14.0798 19.1324 14.0787C19.1101 14.0791 19.0879 14.0795 19.065 14.0799C18.8524 14.0798 18.8524 14.0798 18.7714 14.0219C18.6138 13.8617 18.5823 13.697 18.5814 13.4822C18.5817 13.4504 18.582 13.4186 18.5824 13.3869C18.5822 13.3391 18.5819 13.2914 18.5815 13.2437C18.5814 13.2143 18.5814 13.1849 18.5816 13.1554C18.5819 13.0823 18.5785 13.0112 18.5702 12.9385C18.5583 12.8228 18.5548 12.7075 18.5521 12.5912C18.5515 12.5683 18.5509 12.5454 18.5503 12.5219C18.5484 12.4469 18.5466 12.372 18.5448 12.297C18.5435 12.2448 18.5422 12.1926 18.5408 12.1404C18.5377 12.0174 18.5347 11.8944 18.5317 11.7714C18.5283 11.6313 18.5248 11.4911 18.5212 11.351C18.514 11.063 18.5069 10.775 18.4999 10.4869C18.4931 10.5017 18.4863 10.5165 18.4793 10.5318C18.448 10.5997 18.4168 10.6676 18.3855 10.7355C18.3748 10.7588 18.3642 10.782 18.3532 10.806C18.2679 10.9912 18.1792 11.1744 18.0874 11.3564C18.0726 11.3858 18.0579 11.4152 18.0431 11.4446C17.9624 11.605 17.881 11.7651 17.7963 11.9235C17.7506 12.0091 17.7061 12.0952 17.6625 12.1818C17.6342 12.238 17.6058 12.2941 17.5774 12.3501C17.5634 12.3778 17.5495 12.4056 17.5357 12.4333C17.3347 12.8375 17.3347 12.8375 17.1277 12.9165C17.0132 12.9464 16.9056 12.9463 16.7961 12.899C16.6239 12.7958 16.5365 12.6204 16.4474 12.4473C16.4227 12.4003 16.3979 12.3534 16.3731 12.3064C16.367 12.2947 16.3608 12.2829 16.3544 12.2708C16.2971 12.1621 16.2362 12.0558 16.1749 11.9494C16.0625 11.7528 15.9574 11.5527 15.8536 11.3514C15.8461 11.337 15.8386 11.3225 15.8309 11.3076C15.7188 11.091 15.6168 10.8709 15.5199 10.6471C15.4961 11.2246 15.4772 11.8018 15.4686 12.3798C15.4678 12.4315 15.467 12.4832 15.4662 12.5349C15.463 12.7405 15.4599 12.9462 15.4583 13.1519C15.4576 13.2229 15.4566 13.2939 15.4555 13.3649C15.4551 13.3964 15.4548 13.4279 15.4548 13.4594C15.4545 13.653 15.44 13.8188 15.305 13.9684C15.2101 14.0599 15.1131 14.0838 14.9836 14.0987C14.8601 14.0946 14.7463 14.0381 14.6612 13.9497C14.5578 13.8152 14.5564 13.711 14.5568 13.5456C14.5569 13.5207 14.5569 13.4958 14.5569 13.4701C14.5587 13.0287 14.5741 12.5874 14.5865 12.1461C14.5893 12.0452 14.592 11.9442 14.5947 11.8432C14.5974 11.745 14.6001 11.6467 14.6028 11.5485C14.6041 11.502 14.6054 11.4556 14.6066 11.4091C14.6126 11.1905 14.6194 10.9724 14.6354 10.7542C14.6432 10.6377 14.646 10.5211 14.6492 10.4044C14.6507 10.3522 14.6523 10.3 14.6539 10.2478C14.6563 10.1668 14.6586 10.0858 14.6609 10.0048C14.663 9.92571 14.6655 9.84665 14.6679 9.76759C14.6685 9.74343 14.6691 9.71926 14.6697 9.69436C14.6796 9.38888 14.6796 9.38888 14.7871 9.27275C14.9334 9.15283 15.1174 9.15324 15.2974 9.1554Z" fill="#D8C36E"/>
<path d="M13.1211 9.13582C13.1399 9.13551 13.1588 9.1352 13.1782 9.13488C13.3321 9.13574 13.4361 9.17368 13.5549 9.27093C13.6844 9.42941 13.6913 9.56071 13.6896 9.75981C13.6896 9.78728 13.6897 9.81476 13.6898 9.84223C13.69 9.91652 13.6897 9.99081 13.6893 10.0651C13.6889 10.1433 13.689 10.2214 13.689 10.2996C13.689 10.431 13.6886 10.5625 13.6881 10.6939C13.6875 10.845 13.6873 10.9961 13.6873 11.1472C13.6873 11.309 13.687 11.4708 13.6867 11.6326C13.6866 11.6787 13.6866 11.7249 13.6865 11.771C13.686 12.5507 13.686 12.5507 13.5874 12.8802C13.5822 12.8977 13.577 12.9152 13.5717 12.9333C13.4936 13.1868 13.3803 13.4133 13.1999 13.6095C13.1849 13.6264 13.1699 13.6432 13.1545 13.6605C12.9892 13.8369 12.7959 13.9503 12.5761 14.0449C12.5639 14.0503 12.5517 14.0557 12.5392 14.0613C12.2333 14.1858 11.9247 14.202 11.5986 14.1983C11.532 14.1975 11.4655 14.1974 11.3988 14.1975C11.3557 14.1973 11.3125 14.197 11.2694 14.1968C11.2499 14.1967 11.2304 14.1967 11.2103 14.1966C10.737 14.1902 10.2703 13.9944 9.93145 13.6628C9.55518 13.2672 9.40953 12.7147 9.4121 12.1813C9.41202 12.1522 9.41191 12.1231 9.41178 12.0939C9.41151 12.0159 9.41161 11.9379 9.4118 11.8598C9.41196 11.7776 9.41181 11.6955 9.41172 11.6133C9.41161 11.4756 9.41175 11.3378 9.41204 11.2001C9.41237 11.0412 9.41226 10.8824 9.41193 10.7236C9.41166 10.5865 9.41162 10.4495 9.41178 10.3124C9.41187 10.2309 9.41188 10.1493 9.41168 10.0677C9.41151 9.99114 9.41163 9.91457 9.41198 9.83798C9.41206 9.81001 9.41203 9.78203 9.4119 9.75406C9.41043 9.41352 9.41043 9.41352 9.51353 9.28352C9.52511 9.27482 9.53668 9.26613 9.54861 9.25717C9.5659 9.24358 9.5659 9.24358 9.58353 9.22972C9.70665 9.1489 9.82044 9.15777 9.96486 9.15708C9.98891 9.15643 10.013 9.15577 10.0378 9.15509C10.2049 9.15408 10.3098 9.17776 10.4301 9.29552C10.5169 9.39249 10.5449 9.47855 10.5448 9.6068C10.5448 9.63104 10.5449 9.65527 10.545 9.68024C10.5449 9.70694 10.5448 9.73364 10.5447 9.76034C10.5447 9.7886 10.5447 9.81685 10.5448 9.8451C10.5449 9.90591 10.5448 9.96671 10.5447 10.0275C10.5446 10.124 10.5448 10.2204 10.5451 10.3169C10.5458 10.5912 10.5462 10.8655 10.546 11.1398C10.5458 11.2913 10.5461 11.4428 10.5467 11.5944C10.547 11.6744 10.5471 11.7544 10.5468 11.8344C10.5377 12.4233 10.5377 12.4233 10.7799 12.949C10.7894 12.9616 10.7989 12.9742 10.8088 12.9872C10.9409 13.1384 11.1827 13.2538 11.3807 13.2733C11.4251 13.2753 11.4692 13.2758 11.5136 13.2755C11.5294 13.2754 11.5452 13.2753 11.5615 13.2752C11.8239 13.27 12.0693 13.1906 12.2636 13.0091C12.5042 12.7429 12.546 12.3882 12.5453 12.0448C12.5454 12.017 12.5455 11.9892 12.5456 11.9614C12.5458 11.9019 12.5459 11.8425 12.546 11.7831C12.546 11.689 12.5464 11.595 12.5468 11.5009C12.5478 11.2674 12.5484 11.034 12.5488 10.8005C12.5491 10.6187 12.5496 10.4369 12.5505 10.255C12.5509 10.1616 12.5511 10.0682 12.551 9.97477C12.551 9.91663 12.5513 9.8585 12.5517 9.80036C12.5518 9.76073 12.5517 9.7211 12.5516 9.68148C12.553 9.51012 12.5699 9.38529 12.6888 9.25273C12.8138 9.14474 12.9629 9.1332 13.1211 9.13582Z" fill="#D8C36E"/>
<path d="M8.07986 9.24591C8.28323 9.38833 8.4121 9.58313 8.45986 9.82639C8.4714 9.95473 8.46828 10.0841 8.46794 10.2129C8.46806 10.2519 8.46819 10.291 8.46836 10.3301C8.46871 10.4358 8.46869 10.5414 8.46858 10.6471C8.46852 10.7354 8.46864 10.8237 8.46876 10.912C8.46904 11.1202 8.46901 11.3285 8.46878 11.5368C8.46855 11.7515 8.46883 11.9663 8.46937 12.1811C8.46981 12.3657 8.46994 12.5503 8.46983 12.7349C8.46976 12.8451 8.46981 12.9553 8.47015 13.0654C8.47046 13.1689 8.47038 13.2724 8.47001 13.376C8.46993 13.4139 8.47 13.4519 8.4702 13.4899C8.47047 13.5417 8.47024 13.5935 8.46988 13.6454C8.47017 13.6679 8.47017 13.6679 8.47047 13.6909C8.46903 13.7933 8.4438 13.8507 8.37986 13.9298C8.23983 14.0559 8.13078 14.0579 7.94627 14.0584C7.90525 14.0587 7.8643 14.0597 7.8233 14.0607C7.57033 14.062 7.57033 14.062 7.4742 13.9839C7.37234 13.8829 7.32859 13.7655 7.32742 13.624C7.32778 13.6065 7.32814 13.589 7.32851 13.571C7.32849 13.5425 7.32849 13.5425 7.32846 13.5135C7.32853 13.4515 7.32931 13.3894 7.3301 13.3274C7.33028 13.2841 7.33042 13.2408 7.33052 13.1975C7.3309 13.0841 7.33189 12.9707 7.33299 12.8572C7.33402 12.7413 7.33448 12.6254 7.33498 12.5094C7.33605 12.2823 7.33775 12.0552 7.33986 11.8281C7.32672 11.8281 7.31357 11.8282 7.30003 11.8282C6.60634 11.8307 5.91334 11.8253 5.21986 11.808C5.26111 12.5564 5.31238 13.318 5.65853 13.9973C5.68095 14.0526 5.68425 14.0909 5.67986 14.15C5.53619 14.1692 5.43737 14.1086 5.31986 14.0299C4.68399 13.5305 4.41875 12.6885 4.32236 11.9144C4.24143 11.1759 4.26186 10.2442 4.73986 9.62622C4.91522 9.42372 5.19424 9.28845 5.45986 9.26592C5.44602 9.37998 5.42041 9.48865 5.39236 9.59995C5.34165 9.80753 5.30696 10.0149 5.27986 10.2267C5.27788 10.2416 5.2759 10.2565 5.27385 10.2718C5.23971 10.5308 5.23126 10.7851 5.21986 11.0474C5.91946 11.0474 6.61906 11.0474 7.33986 11.0474C7.34069 10.8298 7.34151 10.6123 7.34236 10.3881C7.34273 10.3197 7.34309 10.2514 7.34346 10.1809C7.34358 10.1264 7.34368 10.0718 7.34377 10.0173C7.34387 10.0033 7.34398 9.98935 7.34408 9.97497C7.34688 9.74737 7.34688 9.74737 7.29986 9.52614C7.25317 9.49268 7.21628 9.48178 7.15986 9.46609C7.25392 9.30794 7.36583 9.21682 7.5422 9.15982C7.73701 9.11253 7.90426 9.15258 8.07986 9.24591Z" fill="#D8C36E"/>
<path fill-rule="evenodd" clip-rule="evenodd" d="M24.5511 9.60769L24.4999 9.56617C23.5333 8.74421 21.8321 8.83932 20.9298 9.70811L20.8949 9.74257C20.8374 9.79904 20.7874 9.85032 20.7527 9.92421L20.7399 9.96651H20.6999C20.586 10.1325 20.4835 10.3137 20.4149 10.5032L20.4079 10.5241C20.3945 10.5639 20.3812 10.6036 20.3659 10.6427C20.136 11.2282 20.1951 11.9706 20.4007 12.556L20.4199 12.6087C20.5596 13.0043 20.7679 13.3751 21.091 13.6493L21.1399 13.6896L21.1863 13.7305C21.6903 14.1609 22.3607 14.2541 22.9999 14.21C23.6125 14.1428 24.1813 13.8651 24.588 13.397C25.1228 12.7641 25.3388 11.943 25.2764 11.1216C25.2182 10.5467 25 9.98742 24.5511 9.60769ZM22.7978 9.71986L22.7324 9.72005C22.4947 9.71648 22.3101 9.76072 22.099 9.87057C21.7539 10.08 21.5645 10.4436 21.4703 10.8242L21.4599 10.8673C21.4265 11.0007 21.4032 11.132 21.3971 11.2697C21.3825 11.8958 21.4293 12.647 21.8813 13.1305L21.9199 13.1692C22.1515 13.4047 22.4137 13.5228 22.744 13.5386C23.0249 13.5446 23.299 13.4562 23.5086 13.2627C23.9579 12.8231 24.1109 12.1603 24.128 11.5498C24.1336 11.0303 24.0138 10.4557 23.6435 10.0671C23.4039 9.84483 23.1247 9.72205 22.7978 9.71986Z" fill="#D8C36E"/>
<path d="M4.13986 10.2267C4.12689 10.2998 4.10664 10.3668 4.08236 10.4369C3.90713 11.0136 3.9482 11.6639 4.05986 12.2484C4.06339 12.2671 4.06693 12.2859 4.07056 12.3052C4.20469 12.9895 4.49323 13.7681 5.08986 14.1778C5.23851 14.2738 5.3886 14.3447 5.55986 14.3902C5.56861 14.434 5.56861 14.434 5.55986 14.4903C5.45969 14.5926 5.3365 14.6318 5.19595 14.6357C5.15642 14.6359 5.11689 14.6358 5.07736 14.6354C5.05668 14.6352 5.036 14.6351 5.0147 14.6349C4.47957 14.6274 4.00768 14.4175 3.62887 14.0401C3.33099 13.7294 3.11021 13.3206 3.11431 12.8843C3.1278 12.7009 3.18916 12.5035 3.31986 12.3685C3.33966 12.3685 3.35946 12.3685 3.37986 12.3685C3.38387 12.3824 3.38788 12.3963 3.39201 12.4106C3.47629 12.6998 3.56557 12.9792 3.69986 13.2492C3.70711 13.264 3.71436 13.2787 3.72182 13.2939C3.85482 13.5617 4.01151 13.7938 4.21986 14.0099C4.23311 14.0239 4.24636 14.0379 4.26002 14.0523C4.40275 14.1917 4.61984 14.3226 4.81986 14.3502C4.75635 14.2811 4.67914 14.2341 4.6015 14.1824C4.58776 14.1717 4.57402 14.161 4.55986 14.15C4.55986 14.1368 4.55986 14.1236 4.55986 14.11C4.54261 14.1027 4.54261 14.1027 4.52502 14.0953C4.0573 13.8329 3.7864 13.0244 3.65064 12.5475C3.56678 12.2384 3.5359 11.9356 3.53506 11.6161C3.53486 11.5719 3.53424 11.5276 3.53361 11.4834C3.53052 11.0672 3.6458 10.6831 3.94053 10.3789C4.09162 10.2267 4.09162 10.2267 4.13986 10.2267Z" fill="#D8C36E"/>
</g>
</g>
<path d="M4 0.25H33C35.0711 0.25 36.75 1.92893 36.75 4V20C36.75 22.0711 35.0711 23.75 33 23.75H4C1.92893 23.75 0.25 22.0711 0.25 20V4C0.25 1.92893 1.92893 0.25 4 0.25Z" stroke="#0C0C0C" stroke-opacity="0.08" stroke-width="0.5"/>
<defs>
<clipPath id="clip0_1367_7783">
<path d="M0 4C0 1.79086 1.79086 0 4 0H33C35.2091 0 37 1.79086 37 4V20C37 22.2091 35.2091 24 33 24H4C1.79086 24 0 22.2091 0 20V4Z" fill="white"/>
</clipPath>
<clipPath id="clip1_1367_7783">
<rect width="37" height="24" rx="4" fill="white"/>
</clipPath>
</defs>
</svg>
