<svg width="37" height="24" viewBox="0 0 37 24" fill="none" xmlns="http://www.w3.org/2000/svg">
<g clip-path="url(#clip0_222_62170)">
<path d="M0 4C0 1.79086 1.79086 0 4 0H33C35.2091 0 37 1.79086 37 4V20C37 22.2091 35.2091 24 33 24H4C1.79086 24 0 22.2091 0 20V4Z" fill="white"/>
<path fill-rule="evenodd" clip-rule="evenodd" d="M15.5187 7.77087C15.9379 7.77087 16.2894 7.85651 16.7173 8.06319V9.15524C16.312 8.77782 15.9604 8.61985 15.4955 8.61985C14.5817 8.61985 13.8631 9.34057 13.8631 10.2543C13.8631 11.2179 14.5595 11.8957 15.5409 11.8957C15.9826 11.8957 16.3276 11.7459 16.7173 11.3745V12.4671C16.2742 12.6659 15.9151 12.7444 15.4955 12.7444C14.0118 12.7444 12.8589 11.6598 12.8589 10.261C12.8589 8.87737 14.0425 7.77087 15.5187 7.77087ZM10.912 7.80097C11.4597 7.80097 11.9608 7.97953 12.3798 8.32868L11.87 8.96459C11.6162 8.69358 11.3762 8.57924 11.0843 8.57924C10.6643 8.57924 10.3585 8.807 10.3585 9.10671C10.3585 9.36371 10.5302 9.49974 11.1148 9.70585C12.2231 10.092 12.5516 10.4343 12.5516 11.1903C12.5516 12.1116 11.8412 12.7528 10.8288 12.7528C10.0873 12.7528 9.54828 12.4747 9.09935 11.847L9.72873 11.2695C9.9531 11.6828 10.3275 11.9042 10.7922 11.9042C11.2269 11.9042 11.5487 11.6185 11.5487 11.233C11.5487 11.0331 11.4512 10.8617 11.2566 10.7406C11.1586 10.6832 10.9645 10.5977 10.583 10.4695C9.66792 10.1557 9.35394 9.82023 9.35394 9.16465C9.35394 8.38585 10.0282 7.80097 10.912 7.80097ZM22.0463 7.88391H23.1106L24.4428 11.0803L25.7922 7.88391H26.8484L24.6904 12.7648H24.1661L22.0463 7.88391ZM3.19775 7.89121H4.62795C6.20813 7.89121 7.30969 8.86955 7.30969 10.274C7.30969 10.9743 6.9727 11.6514 6.40281 12.1007C5.92333 12.48 5.37696 12.6501 4.62045 12.6501H3.19775V7.89121ZM7.758 7.89121H8.73234V12.6501H7.758V7.89121ZM27.289 7.89121H30.0522V8.69761H28.2627V9.75385H29.9863V10.5598H28.2627V11.8444H30.0523V12.6501H27.289L27.289 7.89121ZM30.6976 7.89121H32.1423C33.266 7.89121 33.91 8.40529 33.91 9.29627C33.91 10.0249 33.5061 10.503 32.7722 10.6453L34.3446 12.6501H33.1464L31.7978 10.7383H31.6708V12.6501H30.6976V7.89121ZM31.6708 8.64078V10.082H31.9555C32.5777 10.082 32.9075 9.8246 32.9075 9.34623C32.9075 8.88313 32.5776 8.64078 31.9709 8.64078H31.6708ZM4.17142 8.69756V11.8444H4.43289C5.06251 11.8444 5.46016 11.7295 5.76631 11.4662C6.10325 11.1803 6.30594 10.7238 6.30594 10.2671C6.30594 9.81116 6.10325 9.36831 5.76631 9.08243C5.44446 8.80499 5.06251 8.69756 4.43289 8.69756H4.17142Z" fill="#313131"/>
<path fill-rule="evenodd" clip-rule="evenodd" d="M19.692 7.73809C21.1597 7.73809 22.3494 8.86993 22.3494 10.2681V10.2697C22.3494 11.6679 21.1597 12.8013 19.692 12.8013C18.2243 12.8013 17.0346 11.6679 17.0346 10.2697V10.2681C17.0346 8.86988 18.2243 7.73804 19.692 7.73804L19.692 7.73809ZM36.9989 13.8413C35.7632 14.7211 26.5118 21.0096 10.4941 24.047H34.3904C35.8308 24.047 36.999 22.8648 36.999 21.4069V13.8411L36.9989 13.8413Z" fill="#FD6020"/>
</g>
<path d="M4 0.25H33C35.0711 0.25 36.75 1.92893 36.75 4V20C36.75 22.0711 35.0711 23.75 33 23.75H4C1.92893 23.75 0.25 22.0711 0.25 20V4C0.25 1.92893 1.92893 0.25 4 0.25Z" stroke="#0C0C0C" stroke-opacity="0.08" stroke-width="0.5"/>
<defs>
<clipPath id="clip0_222_62170">
<path d="M0 4C0 1.79086 1.79086 0 4 0H33C35.2091 0 37 1.79086 37 4V20C37 22.2091 35.2091 24 33 24H4C1.79086 24 0 22.2091 0 20V4Z" fill="white"/>
</clipPath>
</defs>
</svg>
