<svg width="37" height="24" viewBox="0 0 37 24" fill="none" xmlns="http://www.w3.org/2000/svg">
<path d="M0 4C0 1.79086 1.79086 0 4 0H33C35.2091 0 37 1.79086 37 4V20C37 22.2091 35.2091 24 33 24H4C1.79086 24 0 22.2091 0 20V4Z" fill="white"/>
<path d="M4 0.25H33C35.0711 0.25 36.75 1.92893 36.75 4V20C36.75 22.0711 35.0711 23.75 33 23.75H4C1.92893 23.75 0.25 22.0711 0.25 20V4C0.25 1.92893 1.92893 0.25 4 0.25Z" stroke="#0C0C0C" stroke-opacity="0.08" stroke-width="0.5"/>
<path fill-rule="evenodd" clip-rule="evenodd" d="M12.2503 15.9377H10.0867L8.46424 9.73149C8.38723 9.446 8.22372 9.19362 7.98321 9.07467C7.38297 8.77574 6.72155 8.53783 6 8.41785V8.17891H9.48538C9.96641 8.17891 10.3272 8.53783 10.3873 8.95468L11.2291 13.4314L13.3917 8.17891H15.4951L12.2503 15.9377ZM16.6976 15.9377H14.6543L16.3369 8.17891H18.3802L16.6976 15.9377ZM21.0238 10.3283C21.0839 9.91047 21.4447 9.67153 21.8656 9.67153C22.527 9.61154 23.2475 9.73152 23.8488 10.0294L24.2096 8.35892C23.6083 8.11999 22.9469 8 22.3466 8C20.3634 8 18.9203 9.0747 18.9203 10.5663C18.9203 11.7009 19.9425 12.2967 20.6641 12.6557C21.4447 13.0136 21.7453 13.2525 21.6852 13.6104C21.6852 14.1472 21.0839 14.3862 20.4837 14.3862C19.7621 14.3862 19.0406 14.2072 18.3802 13.9083L18.0194 15.5798C18.741 15.8777 19.5216 15.9977 20.2432 15.9977C22.4669 16.0566 23.8488 14.983 23.8488 13.3714C23.8488 11.342 21.0238 11.2231 21.0238 10.3283ZM30.9999 15.9377L29.3774 8.17891H27.6347C27.274 8.17891 26.9132 8.41785 26.7929 8.77574L23.7886 15.9377H25.892L26.3119 14.804H28.8964L29.1369 15.9377H30.9999ZM27.9354 10.2684L28.5356 13.1925H26.853L27.9354 10.2684Z" fill="#172B85"/>
</svg>
