<svg width="37" height="24" viewBox="0 0 37 24" fill="none" xmlns="http://www.w3.org/2000/svg">
<path d="M0 4C0 1.79086 1.79086 0 4 0H33C35.2091 0 37 1.79086 37 4V20C37 22.2091 35.2091 24 33 24H4C1.79086 24 0 22.2091 0 20V4Z" fill="#F37421"/>
<path d="M4 0.25H33C35.0711 0.25 36.75 1.92893 36.75 4V20C36.75 22.0711 35.0711 23.75 33 23.75H4C1.92893 23.75 0.25 22.0711 0.25 20V4C0.25 1.92893 1.92893 0.25 4 0.25Z" stroke="#0C0C0C" stroke-opacity="0.08" stroke-width="0.5"/>
<path d="M4.74365 6.71521V15.1152H6.62686V11.6016H9.71968V15.1152H11.5934V6.71521H9.71968V9.94561H6.62686V6.71521H4.74365Z" fill="white"/>
<path d="M27.8069 12.672C27.8306 12.5328 27.8686 12.2496 27.8686 11.9232C27.8686 10.416 27.1286 8.88 25.1837 8.88C23.0918 8.88 22.1431 10.5888 22.1431 12.1344C22.1431 14.04 23.3147 15.24 25.3592 15.24C26.1704 15.24 26.9246 15.1152 27.5413 14.8656L27.2946 13.584C26.7918 13.7472 26.27 13.8336 25.6296 13.8336C24.7568 13.8336 23.9931 13.4592 23.9314 12.6768H27.8069V12.672ZM23.9124 11.376C23.9599 10.8672 24.2824 10.1424 25.0699 10.1424C25.9332 10.1424 26.1277 10.9152 26.1277 11.376H23.9124Z" fill="white"/>
<path d="M28.4664 15.1152H30.3401V12.024C30.3401 11.8752 30.3543 11.7264 30.3781 11.6016C30.5014 11.016 30.971 10.6416 31.6588 10.6416C31.8675 10.6416 32.0288 10.6656 32.1616 10.6896V8.90883C32.0241 8.88483 31.9387 8.88483 31.7679 8.88483C31.1892 8.88483 30.4492 9.25923 30.1409 10.1424H30.0934L30.0318 9.01923H28.4189C28.4427 9.54243 28.4664 10.128 28.4664 11.0256V15.1152Z" fill="white"/>
<path fill-rule="evenodd" clip-rule="evenodd" d="M13.4957 6.37921C14.0269 6.37921 14.4586 6.81601 14.4586 7.35361C14.4586 7.89121 14.0269 8.32801 13.4957 8.32801C12.9644 8.32801 12.5327 7.89121 12.5327 7.35361C12.5327 6.81601 12.9644 6.37921 13.4957 6.37921Z" fill="#FFE700"/>
<path fill-rule="evenodd" clip-rule="evenodd" d="M17.4518 13.6944H18.391C19.335 13.6944 19.7619 13.0848 19.7619 12.4464C19.7619 11.808 19.7145 10.368 18.5523 10.368C17.2146 10.368 17.4281 12.1584 17.4376 13.0944C17.4328 13.296 17.4471 13.4976 17.4518 13.6944ZM12.5327 9.01443H14.4586V12.4512C14.4586 13.0896 14.8096 13.6992 15.5828 13.6992C15.5876 12.1536 15.5828 10.56 15.5307 9.01443H17.1387C17.1719 9.31203 17.2051 9.60963 17.2336 9.90723C17.9926 8.37123 20.3881 8.70723 21.1945 10.008C22.0246 11.3472 22.3093 15.1872 18.391 15.1872H17.4803C17.4898 15.9648 17.4898 16.7472 17.4898 17.5296H15.5639C15.5639 16.7808 15.5686 15.9936 15.5734 15.1872C13.4909 15.1776 12.5327 13.8432 12.5327 12.4512V9.01443Z" fill="white"/>
</svg>
