<svg width="37" height="24" viewBox="0 0 37 24" fill="none" xmlns="http://www.w3.org/2000/svg">
<path d="M0 4C0 1.79086 1.79086 0 4 0H33C35.2091 0 37 1.79086 37 4V20C37 22.2091 35.2091 24 33 24H4C1.79086 24 0 22.2091 0 20V4Z" fill="white"/>
<path d="M4 0.25H33C35.0711 0.25 36.75 1.92893 36.75 4V20C36.75 22.0711 35.0711 23.75 33 23.75H4C1.92893 23.75 0.25 22.0711 0.25 20V4C0.25 1.92893 1.92893 0.25 4 0.25Z" stroke="#0C0C0C" stroke-opacity="0.08" stroke-width="0.5"/>
<path d="M23.3083 12.1834C23.8231 12.1944 24.3407 12.161 24.8534 12.2007C25.3727 12.296 25.4978 13.0694 25.0365 13.3227C24.7218 13.4895 24.3479 13.3848 24.0067 13.4142H23.3083V12.1834ZM25.1511 10.7903C25.2654 11.1874 24.8763 11.544 24.4875 11.4893H23.3083C23.3166 11.1148 23.2921 10.7083 23.3203 10.3535C23.7927 10.3665 24.2694 10.3268 24.7391 10.3743C24.9409 10.4241 25.1098 10.5874 25.1511 10.7903ZM27.989 4.90048C28.0109 5.65896 27.9921 6.45753 27.9984 7.23139C27.997 10.3776 28.0015 13.5238 27.9959 16.6702C27.9752 17.8494 26.9131 18.8739 25.7229 18.8975C24.5316 18.9022 23.3401 18.8982 22.1486 18.8995V14.143C23.4468 14.1364 24.7456 14.1564 26.0433 14.1331C26.6453 14.0959 27.3047 13.7051 27.3327 13.0533C27.4036 12.3987 26.7763 11.946 26.1807 11.8744C25.9518 11.8686 25.9585 11.8088 26.1807 11.7827C26.7488 11.6619 27.1948 11.0835 27.0277 10.5042C26.8853 9.89497 26.2008 9.65916 25.6315 9.66033C24.4707 9.65258 23.3097 9.65925 22.1489 9.657C22.1564 8.76902 22.1332 7.88009 22.1613 6.99276C22.2533 5.83492 23.3422 4.88007 24.5156 4.90078C25.6736 4.90061 26.8313 4.90061 27.989 4.90057V4.90048Z" fill="url(#paint0_linear_222_62198)"/>
<path d="M9.03088 7.1129C9.06052 5.93563 10.1272 4.91946 11.3158 4.90226C12.5027 4.89866 13.6898 4.90174 14.8768 4.9007C14.8735 8.83958 14.8832 12.7789 14.8719 16.7176C14.8262 17.8805 13.7711 18.8773 12.5954 18.8979C11.4063 18.9021 10.217 18.8985 9.02775 18.8997V13.9829C10.1829 14.2513 11.3942 14.3656 12.5726 14.1875C13.277 14.076 14.0477 13.7357 14.2862 13.0167C14.4617 12.4017 14.3629 11.7544 14.389 11.1232V9.65721H12.3496C12.3405 10.6268 12.3684 11.598 12.3349 12.5664C12.2799 13.1616 11.6808 13.5398 11.1102 13.5196C10.4026 13.5269 9.00035 13.015 9.00035 13.015C8.99683 11.1985 9.02088 8.92357 9.03088 7.11307V7.1129Z" fill="url(#paint1_linear_222_62198)"/>
<path d="M15.6373 10.2483C15.53 10.2707 15.6157 9.88854 15.5883 9.74357C15.5956 8.82695 15.573 7.90933 15.6007 6.99335C15.6925 5.83061 16.7897 4.87337 17.9679 4.90059H21.4376C21.4343 8.83947 21.444 12.7788 21.4327 16.7174C21.3869 17.8804 20.3318 18.8772 19.1561 18.8978C17.9669 18.9022 16.7775 18.8985 15.5882 18.8996V13.5126C16.4005 14.1682 17.5044 14.2703 18.5163 14.2721C19.2791 14.2718 20.0375 14.1561 20.7784 13.983V12.9961C19.9435 13.4055 18.9621 13.6655 18.0366 13.4303C17.391 13.2722 16.9224 12.6583 16.9328 12.0028C16.858 11.3212 17.2641 10.6015 17.945 10.3988C18.7904 10.1384 19.7117 10.3376 20.5041 10.6761C20.6739 10.7636 20.8462 10.872 20.7783 10.5928V9.81712C19.4531 9.50689 18.0427 9.39274 16.7112 9.73022C16.3258 9.83718 15.9504 9.9994 15.6373 10.2484V10.2483Z" fill="url(#paint2_linear_222_62198)"/>
<defs>
<linearGradient id="paint0_linear_222_62198" x1="22.1087" y1="11.6007" x2="27.9616" y2="11.6007" gradientUnits="userSpaceOnUse">
<stop stop-color="#58B03A"/>
<stop offset="1" stop-color="#55B330"/>
</linearGradient>
<linearGradient id="paint1_linear_222_62198" x1="8.9033" y1="12.0342" x2="14.7809" y2="12.0342" gradientUnits="userSpaceOnUse">
<stop stop-color="#0F6EB6"/>
<stop offset="1" stop-color="#006DBA"/>
</linearGradient>
<linearGradient id="paint2_linear_222_62198" x1="15.5797" y1="11.7364" x2="21.4365" y2="11.7364" gradientUnits="userSpaceOnUse">
<stop stop-color="#DE0D3D"/>
<stop offset="1" stop-color="#E30138"/>
</linearGradient>
</defs>
</svg>
