<svg width="37" height="24" viewBox="0 0 37 24" fill="none" xmlns="http://www.w3.org/2000/svg">
<path d="M0 4C0 1.79086 1.79086 0 4 0H33C35.2091 0 37 1.79086 37 4V20C37 22.2091 35.2091 24 33 24H4C1.79086 24 0 22.2091 0 20V4Z" fill="white"/>
<path d="M4 0.25H33C35.0711 0.25 36.75 1.92893 36.75 4V20C36.75 22.0711 35.0711 23.75 33 23.75H4C1.92893 23.75 0.25 22.0711 0.25 20V4C0.25 1.92893 1.92893 0.25 4 0.25Z" stroke="#0C0C0C" stroke-opacity="0.08" stroke-width="0.5"/>
<g clip-path="url(#clip0_222_62224)">
<path fill-rule="evenodd" clip-rule="evenodd" d="M11.8146 8V8.00349C11.811 8.00349 10.6818 8 10.3807 9.05153C10.1047 10.0157 9.32682 12.6777 9.30532 12.7511H9.09023C9.09023 12.7511 8.29444 10.0297 8.01483 9.04804C7.71372 7.99651 6.58096 8 6.58096 8H4V16H6.58096V11.2489H6.6885H6.79604L8.30161 16H10.0939L11.5995 11.2524H11.8146V16H14.3956V8H11.8146Z" fill="#4DB45E"/>
<path fill-rule="evenodd" clip-rule="evenodd" d="M21.2423 8C21.2423 8 20.4859 8.06638 20.1311 8.83843L18.3029 12.7511H18.0878V8H15.5068V16H17.9444C17.9444 16 18.7366 15.9301 19.0915 15.1616L20.8838 11.2489H21.0989V16H23.6799V8H21.2423Z" fill="#4DB45E"/>
<path fill-rule="evenodd" clip-rule="evenodd" d="M24.8269 11.6331V15.9999H27.4079V13.4497H30.2039C31.4227 13.4497 32.4551 12.6916 32.8386 11.6331H24.8269Z" fill="#4DB45E"/>
<path fill-rule="evenodd" clip-rule="evenodd" d="M30.2039 8H24.4648C24.7516 9.52314 25.9238 10.7459 27.4401 11.1441C27.7842 11.2349 28.1463 11.2838 28.5191 11.2838H32.9426C32.982 11.1022 32.9999 10.917 32.9999 10.7249C32.9999 9.21921 31.7489 8 30.2039 8Z" fill="#03A8DE"/>
</g>
<defs>
<clipPath id="clip0_222_62224">
<rect width="29" height="8" fill="white" transform="translate(4 8)"/>
</clipPath>
</defs>
</svg>
