<svg width="37" height="24" viewBox="0 0 37 24" fill="none" xmlns="http://www.w3.org/2000/svg">
<path d="M0 4C0 1.79086 1.79086 0 4 0H33C35.2091 0 37 1.79086 37 4V20C37 22.2091 35.2091 24 33 24H4C1.79086 24 0 22.2091 0 20V4Z" fill="#2557D6"/>
<path d="M4 0.25H33C35.0711 0.25 36.75 1.92893 36.75 4V20C36.75 22.0711 35.0711 23.75 33 23.75H4C1.92893 23.75 0.25 22.0711 0.25 20V4C0.25 1.92893 1.92893 0.25 4 0.25Z" stroke="#0C0C0C" stroke-opacity="0.08" stroke-width="0.5"/>
<path d="M0.0119559 11.3131H1.788L2.18846 10.3766H3.085L3.48441 11.3131H6.97891V10.5972L7.29085 11.3162H9.10494L9.41688 10.5865V11.3132H18.1014L18.0974 9.77591H18.2654C18.383 9.77989 18.4174 9.79041 18.4174 9.97876V11.3132H22.9091V10.9553C23.2714 11.1435 23.8349 11.3132 24.5764 11.3132H26.466L26.8704 10.3767H27.7669L28.1624 11.3132H31.8038V10.4236L32.3553 11.3132H35.2733V5.43268H32.3854V6.12714L31.9812 5.43268H29.0178V6.12714L28.6465 5.43268H24.6439C23.9739 5.43268 23.385 5.52335 22.9092 5.77602V5.43268H20.147V5.77602C19.8442 5.51557 19.4317 5.43268 18.973 5.43268H8.88147L8.20437 6.95145L7.50901 5.43268H4.33057V6.12714L3.98134 5.43268H1.27062L0.0117188 8.22849V11.313H0.0118611L0.0119559 11.3131ZM11.223 10.465H10.1574L10.1534 7.16284L8.64614 10.4649H7.73348L6.22226 7.15991V10.4649H4.10805L3.70864 9.52449H1.54428L1.14084 10.4649H0.0118136L1.87325 6.24873H3.41771L5.1856 10.2406V6.24873H6.88219L8.24256 9.1089L9.49221 6.24873H11.2229L11.223 10.465ZM3.35334 8.64945L2.6419 6.96863L1.93439 8.64945H3.35334ZM15.4637 10.4649H11.9913V6.24868H15.4637V7.12665H13.0308V7.88663H15.4054V8.75087H13.0307V9.59289H15.4637L15.4637 10.4649ZM20.3572 7.38421C20.3572 8.05641 19.8945 8.40373 19.6248 8.50799C19.8523 8.59189 20.0466 8.74021 20.1391 8.86305C20.2858 9.07276 20.3112 9.26005 20.3112 9.63661V10.4649H19.2626L19.2587 9.93316C19.2587 9.67948 19.2837 9.31463 19.0947 9.11178C18.9428 8.96346 18.7112 8.9313 18.337 8.9313H17.2211V10.4649H16.1816V6.24868H18.5724C19.1037 6.24868 19.4951 6.26226 19.8311 6.45061C20.16 6.63897 20.3572 6.91391 20.3572 7.38421ZM19.0433 8.01023C18.9004 8.09433 18.7315 8.09711 18.529 8.09711H17.2663V7.16063H18.5462C18.7273 7.16063 18.9164 7.1685 19.0392 7.23666C19.174 7.2981 19.2575 7.42881 19.2575 7.60938C19.2575 7.7937 19.1781 7.94197 19.0433 8.01023ZM22.0243 10.4649H20.9638V6.24868H22.0243V10.4649ZM34.3368 10.4649H32.8638L30.8935 7.30036V10.4649H28.7766L28.3721 9.52444H26.2127L25.8204 10.4649H24.6038C24.0986 10.4649 23.4588 10.3565 23.0966 9.99853C22.7313 9.64055 22.5412 9.15565 22.5412 8.38895C22.5412 7.76365 22.6548 7.19202 23.1015 6.74029C23.4376 6.40381 23.9639 6.24868 24.6802 6.24868H25.6865V7.15209H24.7013C24.3219 7.15209 24.1076 7.20681 23.9014 7.40183C23.7242 7.57938 23.6026 7.91495 23.6026 8.35689C23.6026 8.80857 23.6952 9.13429 23.8883 9.34703C24.0483 9.51388 24.3393 9.56447 24.6128 9.56447H25.0796L26.5447 6.24882H28.1022L29.8622 10.2367V6.24887H31.4449L33.2721 9.18522V6.24887H34.3368V10.4649ZM28.0183 8.64949L27.299 6.96868L26.5836 8.64949H28.0183ZM36.9856 17.1973C36.7332 17.5553 36.2412 17.7368 35.5751 17.7368H33.5676V16.8324H35.5669C35.7652 16.8324 35.904 16.8071 35.9876 16.728C36.0666 16.6573 36.1111 16.5574 36.1105 16.453C36.1105 16.3301 36.06 16.2326 35.9835 16.1741C35.9081 16.1097 35.7983 16.0805 35.6172 16.0805C34.6413 16.0484 33.4236 16.1097 33.4236 14.7752C33.4236 14.1636 33.8241 13.5197 34.9149 13.5197H36.9854V12.6807H35.0616C34.4811 12.6807 34.0593 12.8156 33.7607 13.0251V12.6807H30.9152C30.4601 12.6807 29.926 12.7901 29.6734 13.0251V12.6807H24.5921V13.0251C24.1877 12.7423 23.5054 12.6807 23.1904 12.6807H19.8387V13.0251C19.5188 12.7247 18.8074 12.6807 18.3736 12.6807H14.6225L13.7642 13.5814L12.9602 12.6807H7.35665V18.565H12.8545L13.739 17.65L14.5722 18.565L17.9611 18.5679V17.1837H18.2941C18.7438 17.1904 19.2742 17.1728 19.742 16.9767V18.5648H22.5373V17.0311H22.6721C22.8442 17.0311 22.8612 17.038 22.8612 17.2046V18.5646H31.3527C31.8917 18.5646 32.4553 18.4309 32.7674 18.1881V18.5646H35.4608C36.0213 18.5646 36.5686 18.4884 36.9851 18.2935L36.9852 17.1971L36.9856 17.1973ZM20.1487 14.9339C20.1487 16.1054 19.2472 16.3473 18.3386 16.3473H17.0416V17.7618H15.0212L13.7412 16.3656L12.411 17.7618H8.2935V13.5445H12.4743L13.7532 14.9269L15.0755 13.5445H18.397C19.2218 13.5445 20.1487 13.766 20.1487 14.9339ZM11.8844 16.8747H9.3287V16.0357H11.6108V15.1752H9.3287V14.4085H11.9348L13.0718 15.6375L11.8844 16.8747ZM16.0024 17.3576L14.4064 15.6397L16.0024 13.9765V17.3576ZM18.3626 15.4824H17.0193V14.4085H18.3747C18.75 14.4085 19.0105 14.5568 19.0105 14.9255C19.0105 15.2903 18.762 15.4824 18.3626 15.4824ZM25.4002 13.5445H28.8696V14.4167H26.4354V15.1834H28.8101V16.0438H26.4354V16.8829L28.8695 16.8867V17.7618H25.4001L25.4002 13.5445ZM24.0664 15.8019C24.2978 15.8847 24.4869 16.0331 24.5755 16.1559C24.7224 16.3619 24.7436 16.554 24.7478 16.9257V17.7618H23.7041V17.2342C23.7041 16.9804 23.7293 16.6048 23.5361 16.4086C23.3842 16.2576 23.1527 16.2215 22.7735 16.2215H21.6626V17.7618H20.618V13.5446H23.018C23.5442 13.5446 23.9275 13.5671 24.2687 13.7436C24.5967 13.9358 24.8031 14.199 24.8031 14.6801C24.803 15.3532 24.3399 15.6967 24.0664 15.8019ZM23.4789 15.2688C23.3398 15.3488 23.1679 15.3557 22.9657 15.3557H21.7029V14.4086H22.9828C23.1679 14.4086 23.3531 14.4124 23.4789 14.4848C23.6136 14.5531 23.6941 14.6838 23.6941 14.8641C23.6941 15.0445 23.6135 15.1898 23.4789 15.2688ZM32.8626 15.5374C33.0652 15.7404 33.1735 15.9969 33.1735 16.4309C33.1735 17.3381 32.589 17.7616 31.5406 17.7616H29.516V16.8573H31.5325C31.7297 16.8573 31.8695 16.8321 31.957 16.7529C32.0286 16.6877 32.0799 16.5929 32.0799 16.4779C32.0799 16.3549 32.0244 16.2574 31.953 16.1989C31.8735 16.1346 31.7639 16.1054 31.5828 16.1054C30.6107 16.0732 29.3933 16.1346 29.3933 14.8002C29.3933 14.1885 29.7897 13.5446 30.8795 13.5446H32.9634V14.4422H31.0566C30.8676 14.4422 30.7447 14.4491 30.6402 14.5184C30.5263 14.5866 30.4841 14.688 30.4841 14.8217C30.4841 14.9807 30.5807 15.089 30.7116 15.1359C30.8212 15.1728 30.939 15.1836 31.116 15.1836L31.6756 15.1983C32.2399 15.2116 32.6272 15.3062 32.8626 15.5374ZM36.9874 14.4085H35.0929C34.9039 14.4085 34.7781 14.4154 34.6723 14.4847C34.5627 14.553 34.5204 14.6543 34.5204 14.7881C34.5204 14.9472 34.613 15.0554 34.7477 15.1022C34.8574 15.1392 34.9752 15.15 35.1482 15.15L35.7117 15.1646C36.2801 15.1783 36.6596 15.273 36.8909 15.5041C36.9332 15.5362 36.9584 15.5723 36.9874 15.6085V14.4085H36.9874Z" fill="white"/>
</svg>
