<svg width="37" height="24" viewBox="0 0 37 24" fill="none" xmlns="http://www.w3.org/2000/svg">
<path d="M0 4C0 1.79086 1.79086 0 4 0H33C35.2091 0 37 1.79086 37 4V20C37 22.2091 35.2091 24 33 24H4C1.79086 24 0 22.2091 0 20V4Z" fill="white"/>
<path d="M4 0.25H33C35.0711 0.25 36.75 1.92893 36.75 4V20C36.75 22.0711 35.0711 23.75 33 23.75H4C1.92893 23.75 0.25 22.0711 0.25 20V4C0.25 1.92893 1.92893 0.25 4 0.25Z" stroke="#0C0C0C" stroke-opacity="0.08" stroke-width="0.5"/>
<path d="M15.8281 19.1468L2.26343 19.1518V19.1187C2.26343 19.1006 2.28506 18.9828 2.31148 18.8569C2.33794 18.7311 2.37904 18.531 2.4029 18.4122C2.42666 18.2935 2.46737 18.0917 2.49327 17.9637C2.55699 17.651 2.61995 17.3381 2.68211 17.0251C2.70659 16.9017 2.74735 16.6999 2.77282 16.5766C2.8053 16.4189 2.83739 16.261 2.86925 16.1031C2.89681 15.9661 2.9387 15.7567 2.96237 15.6379C2.98604 15.5191 3.02363 15.336 3.04593 15.231C3.06818 15.1259 3.09663 14.9839 3.10904 14.9153C3.12149 14.8468 3.16177 14.6449 3.19856 14.4668C3.22952 14.3174 3.25963 14.1679 3.28874 14.0182C3.30157 13.9497 3.34233 13.7478 3.37935 13.5697C3.41633 13.3916 3.45695 13.1897 3.46963 13.1212C3.48232 13.0527 3.52318 12.8508 3.56039 12.6727C3.59769 12.4944 3.63793 12.2964 3.64977 12.2325C3.6617 12.1685 3.69427 12.0041 3.7222 11.867C3.75008 11.7299 3.80292 11.472 3.83956 11.2939C3.87625 11.1157 3.93893 10.8054 3.97884 10.6043C4.01884 10.4034 4.06661 10.1642 4.08502 10.0728C4.13913 9.80415 4.19372 9.53555 4.24887 9.26714C4.27605 9.13455 4.32021 8.91778 4.34706 8.78528C4.37395 8.65277 4.41532 8.44722 4.43904 8.32846C4.46276 8.20971 4.50324 8.01162 4.52899 7.88822C4.55474 7.76492 4.59905 7.54806 4.62746 7.40645C4.65586 7.2648 4.70344 7.04803 4.73317 6.92468C4.7629 6.80132 4.80494 6.65182 4.82662 6.59246C4.84826 6.53301 4.90805 6.40434 4.95946 6.30633L5.05296 6.12827L5.13794 6.0156C5.18462 5.95371 5.26808 5.85584 5.32333 5.79816C5.37857 5.74049 5.47174 5.65368 5.53049 5.6053C5.58915 5.55687 5.67413 5.49153 5.71924 5.4601C5.76441 5.42868 5.85308 5.37364 5.91628 5.3378C5.97948 5.30197 6.06819 5.25507 6.11331 5.23356C6.15847 5.21206 6.25084 5.17273 6.31853 5.14623C6.38623 5.11979 6.51552 5.07538 6.6058 5.04765C6.69608 5.01986 6.86561 4.978 6.9825 4.95467C7.09938 4.93129 7.28401 4.90006 7.39294 4.88525L7.59088 4.85833L21.1641 4.85316L34.7373 4.84784V4.88089C34.7373 4.89905 34.7155 5.01685 34.6889 5.14264C34.6554 5.30183 34.6224 5.46111 34.5901 5.62058C34.5623 5.75764 34.5219 5.95577 34.5001 6.06082C34.4693 6.21028 34.4388 6.35979 34.4086 6.50935C34.38 6.651 34.3361 6.86782 34.3109 6.99112C34.2858 7.11447 34.245 7.31634 34.2204 7.43965C34.1958 7.56305 34.1548 7.76487 34.1294 7.88818C34.0997 8.03208 34.0705 8.17608 34.0416 8.32018C34.0188 8.43438 33.9775 8.63994 33.9499 8.77699C33.9223 8.914 33.8779 9.13086 33.8513 9.25876C33.8247 9.38667 33.7842 9.5848 33.7613 9.699C33.7383 9.8132 33.6971 10.0188 33.6695 10.1558C33.642 10.2928 33.5977 10.5097 33.5711 10.6376C33.5445 10.7655 33.5049 10.9599 33.483 11.0695C33.4223 11.3742 33.3611 11.6788 33.2996 11.9833C33.2774 12.0929 33.2377 12.2873 33.2116 12.4152C33.178 12.5784 33.1448 12.7418 33.1118 12.9052C33.0831 13.0469 33.0421 13.2487 33.0207 13.3538C32.9992 13.4588 32.9591 13.6569 32.9315 13.7939C32.8991 13.9546 32.8666 14.1151 32.8338 14.2757C32.8077 14.4037 32.7668 14.6055 32.7429 14.7243C32.719 14.8431 32.6774 15.0487 32.6506 15.1811C32.6237 15.3136 32.5797 15.5304 32.553 15.6629C32.5262 15.7954 32.486 15.9935 32.4637 16.1032C32.4333 16.2526 32.4032 16.4021 32.3732 16.5516C32.3409 16.7118 32.3077 16.8718 32.2737 17.0316L32.2243 17.2624L32.1654 17.422C32.133 17.5098 32.0843 17.6265 32.0571 17.6813C32.0301 17.7361 31.9748 17.8328 31.9344 17.8963C31.894 17.9596 31.8376 18.0408 31.8092 18.0767C31.7808 18.1126 31.6953 18.2053 31.619 18.2827L31.4806 18.4233L31.3474 18.5191C31.2741 18.5718 31.1951 18.6254 31.172 18.6382C31.1488 18.651 31.0605 18.6967 30.9757 18.7395C30.891 18.7824 30.7714 18.8371 30.7098 18.8609C30.6483 18.8848 30.5264 18.9253 30.4389 18.9511C30.3515 18.9769 30.2578 19.0023 30.2307 19.0076C30.2036 19.0128 30.1096 19.0325 30.0218 19.0513C29.9339 19.0702 29.7566 19.0982 29.6278 19.1138L29.3934 19.142L15.8288 19.1468H15.8281ZM11.0021 15.5964H11.3551L11.3651 15.5701C11.3706 15.5556 11.375 15.5217 11.375 15.4946C11.375 15.4675 11.3867 15.3691 11.4009 15.2759C11.4151 15.1826 11.4485 14.968 11.4751 14.799C11.5016 14.63 11.5414 14.3758 11.5635 14.2342C11.5844 14.1001 11.6044 13.9657 11.6234 13.8313C11.6342 13.7514 11.6474 13.686 11.6528 13.686C11.6581 13.686 11.6809 13.7213 11.7035 13.7645L11.7445 13.843L11.8354 13.9358L11.9265 14.0286L12.0385 14.074L12.1505 14.1194L12.284 14.1369L12.4176 14.1544L12.587 14.1439L12.7565 14.1333L12.94 14.0853L13.1236 14.0372L13.222 13.9917C13.2762 13.9667 13.3722 13.9121 13.4354 13.8705L13.5504 13.7948L13.6575 13.6864C13.7165 13.6269 13.7996 13.5312 13.8422 13.4739C13.8849 13.4168 13.9198 13.3658 13.9198 13.3607C13.9198 13.3556 13.9408 13.3202 13.9664 13.2819C13.992 13.2438 14.0443 13.1377 14.0828 13.0464C14.1213 12.955 14.1813 12.7905 14.2163 12.6809L14.28 12.4815L14.3129 12.3089C14.3309 12.2139 14.3542 12.0569 14.3646 11.96L14.3834 11.7838L14.3725 11.6343L14.3617 11.4848L14.3273 11.3353L14.2931 11.1858L14.2376 11.0739L14.1822 10.9619L14.0751 10.847L13.968 10.7321L13.8412 10.6658L13.7145 10.5996L13.5749 10.5657L13.4354 10.5319L13.2958 10.5216L13.1563 10.5112L13.0009 10.5292L12.8454 10.5473L12.7185 10.5802L12.5917 10.6129L12.4814 10.6646C12.4208 10.6929 12.3326 10.7412 12.2854 10.7717C12.2382 10.8023 12.1895 10.8373 12.1772 10.8498C12.1649 10.8622 12.1354 10.8852 12.1118 10.9008L12.0686 10.9294L12.0988 10.7835C12.1154 10.7032 12.1292 10.6282 12.1296 10.6167L12.1302 10.596H11.5282L11.4755 10.9324C11.4464 11.1174 11.4006 11.4034 11.3736 11.5679C11.3141 11.9307 11.2539 12.2934 11.193 12.656C11.1661 12.8158 11.1218 13.0701 11.0944 13.2208C11.067 13.3716 11.0269 13.5921 11.0052 13.7109C10.9835 13.8297 10.9427 14.0539 10.9146 14.2092C10.8814 14.392 10.8479 14.5748 10.8141 14.7574C10.782 14.9292 10.7492 15.1009 10.7159 15.2724C10.689 15.4094 10.663 15.5385 10.6581 15.5589L10.6491 15.5963H11.0021V15.5964ZM12.5218 13.6757L12.3847 13.6841L12.2952 13.668L12.2056 13.652L12.1146 13.6099L12.0235 13.5679L11.96 13.5065L11.8964 13.4451L11.8597 13.362C11.8395 13.3163 11.8136 13.2387 11.8021 13.1895L11.7812 13.1002L11.7896 12.957L11.798 12.8139L11.8403 12.5895C11.8722 12.4181 11.9031 12.2464 11.9331 12.0746C11.9608 11.9147 12.003 11.6804 12.0266 11.5539L12.0695 11.324L12.1637 11.2447C12.2155 11.2012 12.2974 11.1427 12.3459 11.115L12.434 11.0644L12.5489 11.0284L12.6638 10.9924L12.8116 10.9836L12.9593 10.9748L13.0797 11.0008L13.2 11.0267L13.2849 11.0662L13.3698 11.1058L13.441 11.1782L13.5122 11.2507L13.5506 11.3274C13.5717 11.3696 13.6014 11.4522 13.6165 11.5109L13.644 11.6177L13.6356 11.9333L13.6272 12.249L13.585 12.4356C13.5618 12.5382 13.5177 12.6952 13.4869 12.7844L13.431 12.9468L13.3625 13.0781C13.3248 13.1504 13.2667 13.248 13.2334 13.2951C13.2001 13.3421 13.1469 13.4032 13.1153 13.4306C13.077 13.4636 13.0378 13.4954 12.9977 13.526L12.9375 13.5715L12.7982 13.6194L12.6588 13.6674L12.5218 13.6757ZM15.9309 14.1324L16.1115 14.1345L16.292 14.1178C16.3914 14.1087 16.5539 14.0896 16.6532 14.0753C16.7526 14.0612 16.9242 14.0295 17.0346 14.005L17.2352 13.9603L17.2453 13.8853C17.2507 13.8442 17.2733 13.7217 17.2954 13.613L17.3355 13.4154L17.3266 13.4065L17.3177 13.3975L17.2563 13.4275C17.2226 13.444 17.1174 13.4833 17.0228 13.5149L16.8505 13.5722L16.6698 13.6077L16.489 13.6431L16.2018 13.6438L15.9145 13.6443L15.8159 13.6125C15.7618 13.595 15.6821 13.563 15.6389 13.5413L15.5603 13.502L15.4955 13.4427L15.4307 13.3834L15.3801 13.294L15.3295 13.2044L15.2977 13.0922L15.266 12.98L15.2658 12.7722L15.2656 12.5645L15.2937 12.3793L15.322 12.1939L15.569 12.1823L15.816 12.1706L16.7293 12.1766L17.6425 12.1825L17.6701 12.0641C17.6853 11.999 17.7085 11.8645 17.7216 11.7651L17.7456 11.5844L17.7461 11.4325L17.7467 11.2805L17.7207 11.167L17.6946 11.0535L17.6516 10.9785C17.628 10.9372 17.5863 10.8773 17.559 10.8454C17.5318 10.8135 17.4831 10.7686 17.4508 10.7456C17.4185 10.7226 17.3552 10.6838 17.31 10.6595L17.228 10.6153L17.0846 10.5803L16.9411 10.5454L16.7645 10.5283L16.5877 10.5113L16.4236 10.5221L16.2594 10.5329L16.0624 10.5712L15.8654 10.6095L15.7422 10.6593C15.6745 10.6866 15.5711 10.7367 15.5124 10.7703C15.4537 10.804 15.3725 10.8588 15.3319 10.8921C15.2912 10.9254 15.2208 10.9902 15.1755 11.0361C15.1302 11.0819 15.063 11.1642 15.0265 11.219C14.9898 11.2739 14.9337 11.3711 14.9016 11.435C14.8696 11.499 14.8279 11.5887 14.8089 11.6344C14.79 11.68 14.7554 11.7735 14.7323 11.842C14.7091 11.9106 14.6727 12.0414 14.6514 12.1328C14.6263 12.2435 14.6047 12.3549 14.5864 12.467L14.5602 12.6351L14.5605 12.8823L14.5608 13.1295L14.5857 13.2375C14.5994 13.2969 14.6257 13.3866 14.644 13.4369C14.6622 13.4871 14.6962 13.5619 14.7194 13.603C14.7425 13.6442 14.7919 13.7103 14.8291 13.7501C14.8663 13.7899 14.9337 13.8503 14.9789 13.8843C15.024 13.9183 15.1044 13.9662 15.1574 13.9906L15.254 14.035L15.3885 14.068C15.4625 14.0861 15.5743 14.1076 15.6368 14.1157C15.6992 14.1236 15.8316 14.1313 15.9309 14.1324ZM16.2401 11.7921C15.7856 11.7921 15.4137 11.7889 15.4137 11.7848C15.4137 11.7808 15.4331 11.7229 15.4569 11.656C15.4805 11.5893 15.5222 11.4899 15.5493 11.4352L15.5988 11.3357L15.7073 11.2265L15.8159 11.1171L15.9227 11.0655C15.9814 11.0371 16.0589 11.0062 16.0951 10.9968C16.1312 10.9874 16.2346 10.9749 16.3249 10.9691L16.4891 10.9585L16.6152 10.9749L16.7412 10.9913L16.8329 11.0337L16.9245 11.0762L16.9748 11.131C17.0024 11.1612 17.0353 11.2056 17.048 11.2297L17.0709 11.2736L17.086 11.371L17.1012 11.4682L17.0838 11.6302L17.0665 11.7923H16.2401V11.7921ZM21.1517 14.1325L21.3324 14.1345L21.5375 14.1099C21.6503 14.0964 21.8005 14.0739 21.8713 14.06C21.9568 14.0426 22.0416 14.0222 22.1257 13.9989C22.1949 13.9791 22.2576 13.9577 22.2649 13.9514C22.2722 13.945 22.2917 13.8696 22.3083 13.7838C22.3249 13.698 22.3458 13.583 22.3548 13.5282C22.3637 13.4733 22.3683 13.4256 22.365 13.422C22.3617 13.4184 22.3496 13.423 22.3381 13.4322C22.3266 13.4415 22.2461 13.4758 22.1591 13.5085L22.0011 13.5679L21.7759 13.612L21.5508 13.6561L21.3594 13.6496L21.168 13.643L21.0593 13.6047L20.9505 13.5665L20.8665 13.4922L20.7826 13.4179L20.7268 13.3151L20.6711 13.2124L20.6445 13.075L20.6179 12.9377L20.6182 12.7594L20.6183 12.5812L20.6506 12.3652L20.6829 12.1492L20.717 12.0328C20.7357 11.9689 20.757 11.8942 20.7642 11.8668C20.7714 11.8393 20.8014 11.7608 20.8311 11.6922C20.8607 11.6237 20.9135 11.5178 20.9484 11.4569L21.012 11.3462L21.09 11.2643L21.1681 11.1825L21.2507 11.1306L21.3334 11.0787L21.4395 11.0456C21.4979 11.0275 21.6011 11.0038 21.6688 10.9932L21.792 10.9738L21.9725 10.9829L22.1531 10.9921L22.3665 11.0353L22.58 11.0785L22.6667 11.1113C22.7145 11.1292 22.7556 11.1441 22.7582 11.1441C22.7608 11.1441 22.7722 11.0824 22.7836 11.007C22.7951 10.9317 22.8154 10.8076 22.8289 10.7314C22.8424 10.6552 22.8501 10.5895 22.8461 10.5856C22.8422 10.5815 22.778 10.5712 22.7036 10.5626C22.6291 10.5541 22.4268 10.5389 22.254 10.5287L21.9397 10.5105L21.718 10.5276L21.4964 10.5449L21.3321 10.5798L21.168 10.6147L21.0622 10.6575C21.0041 10.681 20.9189 10.7235 20.873 10.7519C20.8289 10.779 20.7856 10.8073 20.743 10.8367C20.7175 10.855 20.64 10.9263 20.5708 10.9952L20.4451 11.1204L20.3749 11.2244C20.3363 11.2817 20.2695 11.401 20.2265 11.4896L20.1483 11.6508L20.0883 11.8251C20.0553 11.9211 20.0093 12.0781 19.986 12.174L19.9437 12.3485L19.9283 12.5063L19.9129 12.6642L19.9131 12.8718L19.9133 13.0794L19.9288 13.2002L19.9442 13.321L19.9934 13.4453L20.0426 13.5696L20.0994 13.6594L20.1561 13.7492L20.2464 13.8392L20.3368 13.9291L20.4323 13.9802L20.5279 14.0313L20.6534 14.0666C20.7223 14.0859 20.8221 14.1082 20.875 14.116C20.9279 14.1238 21.0524 14.1311 21.1519 14.1322H21.1517V14.1325ZM23.8523 14.1264L24.0739 14.1199L24.2134 14.0838L24.353 14.0476L24.4433 14.0044C24.493 13.9807 24.5742 13.9338 24.6238 13.9002C24.6735 13.8667 24.7505 13.8029 24.7947 13.7585C24.8389 13.714 24.9046 13.6382 24.9406 13.59C24.9766 13.5417 25.0082 13.5045 25.0108 13.5072C25.0135 13.5099 25.0052 13.5866 24.9924 13.6778C24.9796 13.7691 24.969 13.8904 24.9688 13.9476L24.9686 14.0513H25.5712L25.5804 13.8147L25.5895 13.5779L25.6325 13.2706C25.6562 13.1015 25.6944 12.8511 25.7175 12.7141C25.7404 12.5771 25.7805 12.3454 25.8064 12.1991C25.8323 12.0529 25.8733 11.8249 25.8975 11.6924L25.9417 11.4516L25.9432 11.2435L25.9446 11.0354L25.8981 10.9392L25.8517 10.843L25.7887 10.7818L25.7255 10.7206L25.6221 10.6676L25.5185 10.6145L25.3642 10.5797L25.21 10.5449L24.9976 10.5287L24.7852 10.5123L24.5116 10.5294C24.361 10.5388 24.1494 10.5574 24.041 10.5707L23.844 10.5949L23.7097 10.5954L23.5754 10.596L23.5559 10.6915C23.5452 10.744 23.5153 10.8688 23.4896 10.9689C23.4638 11.0689 23.4452 11.1532 23.4481 11.1561C23.4509 11.159 23.5228 11.1425 23.6076 11.1195C23.6924 11.0963 23.8728 11.0584 24.0082 11.035L24.2544 10.9925L24.4761 10.9833L24.6977 10.9741L24.8405 10.9994L24.9833 11.0247L25.0786 11.0723L25.1739 11.1199L25.2272 11.2004L25.2806 11.2808L25.2799 11.4076L25.2791 11.5345L25.2508 11.6737L25.2225 11.813L24.6317 11.8151L24.041 11.8172L23.8477 11.8709C23.7413 11.9004 23.6236 11.9396 23.586 11.9579C23.5484 11.9763 23.5108 11.9914 23.5024 11.9914C23.4941 11.9914 23.4309 12.0268 23.3619 12.0702L23.2365 12.149L23.1378 12.2487C23.0835 12.3036 23.0141 12.3859 22.9836 12.4316C22.9531 12.4772 22.9036 12.5726 22.8736 12.6436L22.8189 12.7726L22.7939 12.9177L22.7688 13.0627V13.3672L22.7927 13.4939L22.8167 13.6207L22.8611 13.7033C22.8856 13.7487 22.9305 13.8154 22.9608 13.8513L23.0161 13.9166L23.1143 13.977L23.2124 14.0374L23.3249 14.0695C23.3867 14.0872 23.4808 14.1086 23.534 14.1172L23.6306 14.1326L23.8523 14.1262H23.8523V14.1264ZM24.0575 13.6617L23.9262 13.6687L23.8391 13.6463C23.7913 13.6339 23.7187 13.6065 23.6778 13.5852L23.6036 13.5465L23.563 13.4977C23.5407 13.4708 23.5066 13.4181 23.4872 13.3805L23.452 13.3121L23.4452 13.1525L23.4382 12.9927L23.466 12.8959C23.4813 12.8427 23.5173 12.7501 23.5459 12.6904L23.5979 12.5818L23.6975 12.4819L23.797 12.3818L23.9027 12.3303L24.0083 12.2789L24.1396 12.2473L24.2709 12.2157H25.0918L25.1178 12.2266L25.1438 12.2374L25.1219 12.3679C25.1099 12.4396 25.0813 12.5692 25.0582 12.656C25.0352 12.7429 24.9945 12.8705 24.9679 12.9396C24.9413 13.0087 24.9195 13.0699 24.9195 13.0754C24.9195 13.081 24.8925 13.1314 24.8595 13.1874L24.7995 13.2893L24.7011 13.3881C24.647 13.4423 24.5966 13.4867 24.5894 13.4867C24.5822 13.4867 24.549 13.5055 24.5156 13.5283L24.4552 13.5698L24.322 13.6124L24.1889 13.655L24.0575 13.6617ZM29.4014 14.1322L29.5573 14.1343L29.7051 14.11C29.7864 14.0967 29.8898 14.0751 29.9349 14.0622C29.9801 14.0492 30.0614 14.0157 30.1154 13.9877L30.214 13.9366L30.2988 13.8611L30.3834 13.7856L30.4727 13.6652C30.5218 13.599 30.5663 13.5336 30.5715 13.5198L30.581 13.4949L30.5727 13.5779C30.5668 13.6336 30.5593 13.6889 30.55 13.7441C30.542 13.7898 30.5308 13.8776 30.5248 13.9393L30.5139 14.0514H31.158V13.8271L31.2071 13.4035C31.234 13.1705 31.274 12.8603 31.2958 12.714C31.3175 12.5678 31.3512 12.3586 31.3706 12.2489C31.3898 12.1393 31.4241 11.9411 31.4465 11.8087C31.469 11.6762 31.5096 11.4444 31.5368 11.2937C31.5639 11.1429 31.6075 10.9037 31.6334 10.7621C31.6594 10.6205 31.6998 10.3999 31.7232 10.272C31.7465 10.1442 31.7883 9.91979 31.8161 9.77368C31.8453 9.62116 31.8753 9.46887 31.9064 9.31682C31.9282 9.21182 31.9461 9.12017 31.946 9.11332V9.10082H31.2433L31.2329 9.20468C31.2273 9.26178 31.2003 9.45052 31.1732 9.62418C31.141 9.82916 31.1081 10.034 31.0747 10.2388C31.0553 10.3569 31.036 10.475 31.017 10.5932L31.0082 10.6486L30.9805 10.6367C30.9652 10.6301 30.8825 10.6069 30.7968 10.5851L30.6408 10.5455L30.4274 10.5286L30.2139 10.5118L30.0334 10.5287L29.8528 10.5458L29.6886 10.5878L29.5244 10.6298L29.3685 10.7068L29.2125 10.7837L29.0975 10.8697L28.9826 10.9558L28.8833 11.0636C28.8288 11.1228 28.7499 11.2208 28.7081 11.2812L28.6322 11.3913L28.5429 11.5791C28.4938 11.6825 28.4341 11.8194 28.4102 11.8833C28.3862 11.9473 28.3441 12.0891 28.3164 12.1984L28.2662 12.3972L28.2414 12.6553L28.2167 12.9134L28.2352 13.121L28.2539 13.3287L28.2759 13.4034C28.288 13.4445 28.3135 13.5178 28.3325 13.5662L28.3671 13.6543L28.4303 13.7408L28.4936 13.8274L28.5657 13.8872L28.6378 13.947L28.7364 13.9966C28.7906 14.0237 28.8814 14.059 28.9384 14.0747C28.9952 14.0905 29.0875 14.1094 29.1436 14.1168C29.1996 14.1242 29.3155 14.1312 29.4014 14.1322ZM29.6813 13.661L29.5573 13.6676L29.4737 13.6524C29.4277 13.644 29.3541 13.6215 29.31 13.6024L29.2301 13.5678L29.1628 13.5119L29.0955 13.4562L29.0455 13.3593L28.9954 13.2624L28.9726 13.1544L28.9499 13.0464L28.9518 12.8305L28.9537 12.6145L28.9803 12.4234L29.0067 12.2324L29.0479 12.0996C29.0705 12.0265 29.0891 11.9574 29.0892 11.9462C29.0894 11.9351 29.1117 11.8753 29.1389 11.8134C29.1707 11.7418 29.2043 11.671 29.2397 11.6012C29.2681 11.5463 29.321 11.4609 29.3573 11.4112C29.3937 11.3617 29.4585 11.2869 29.5013 11.2451C29.5441 11.2034 29.6121 11.1486 29.6526 11.1234L29.7261 11.0777L29.8552 11.0325L29.9843 10.9873L30.2552 10.9871H30.526L30.682 11.031C30.7678 11.055 30.8589 11.083 30.8844 11.093L30.9309 11.1113L30.9218 11.1569C30.9169 11.182 30.8973 11.2922 30.8784 11.4018C30.8596 11.5115 30.8224 11.7208 30.7958 11.867C30.7693 12.0132 30.7285 12.2338 30.7051 12.3571C30.6818 12.4804 30.6481 12.6374 30.6301 12.7059C30.6116 12.7763 30.5929 12.8466 30.5738 12.9168C30.5608 12.9642 30.5298 13.0465 30.505 13.0995C30.4801 13.1525 30.4366 13.2296 30.4083 13.2706C30.3799 13.3117 30.3322 13.3688 30.302 13.3973C30.2717 13.4258 30.2063 13.4764 30.1567 13.5098L30.0665 13.5706L29.9359 13.6125L29.8054 13.6544L29.6813 13.661ZM5.51927 14.0514H5.91812L5.94676 13.8728C5.96248 13.7746 5.99325 13.5858 6.01508 13.4533L6.10536 12.9051C6.13319 12.7361 6.17495 12.4856 6.1981 12.3486C6.22125 12.2116 6.25808 11.999 6.27986 11.8762C6.30168 11.7534 6.32369 11.6487 6.32871 11.6436L6.33794 11.6343H8.48312L8.49505 11.6464L8.50698 11.6585L8.48832 11.7544C8.47815 11.8072 8.4479 11.9699 8.42115 12.1161C8.3944 12.2623 8.34943 12.509 8.32116 12.6644C8.29148 12.8278 8.26128 12.9911 8.23055 13.1544C8.20887 13.2686 8.16503 13.5078 8.13312 13.686C8.10126 13.8641 8.07523 14.0192 8.07532 14.0307L8.07551 14.0514H8.87657L8.89428 13.9477C8.90408 13.8906 8.9197 13.7878 8.92917 13.7192C8.93854 13.6507 8.96131 13.5048 8.97963 13.3952C8.99795 13.2856 9.03455 13.0688 9.06101 12.9135C9.08743 12.7582 9.13174 12.4927 9.15939 12.3237C9.18703 12.1546 9.22803 11.9079 9.25057 11.7755C9.27906 11.6092 9.30875 11.443 9.33957 11.2772C9.36603 11.1355 9.41015 10.8963 9.43761 10.7455C9.46507 10.5948 9.50611 10.3668 9.52893 10.2388C9.55175 10.1109 9.59332 9.87912 9.62134 9.72382C9.64937 9.56851 9.68473 9.38729 9.69993 9.32094L9.72758 9.20051H8.91648L8.90545 9.27946C8.89944 9.32276 8.87984 9.44429 8.86194 9.5494C8.844 9.65445 8.81152 9.84132 8.78965 9.96468C8.76778 10.0881 8.72782 10.3235 8.70084 10.488C8.67438 10.6491 8.64891 10.8104 8.62443 10.9719L8.59707 11.1566L8.00175 11.1688L7.40639 11.181L6.90779 11.169C6.63354 11.1624 6.40763 11.1557 6.40574 11.1541C6.40389 11.1525 6.41322 11.088 6.42647 11.0107C6.44394 10.911 6.46255 10.8115 6.48229 10.7123C6.50747 10.585 6.53195 10.4577 6.55567 10.3301C6.57863 10.2068 6.60457 10.0536 6.61342 9.98959C6.62223 9.92568 6.64074 9.8191 6.65451 9.75285C6.66829 9.68664 6.69442 9.5471 6.7126 9.44281C6.73073 9.33847 6.7501 9.24128 6.75564 9.22686L6.76558 9.20046H5.96101L5.93531 9.34585C5.9211 9.4258 5.90222 9.53977 5.89332 9.59917C5.88437 9.65852 5.8544 9.84918 5.82671 10.0228C5.79901 10.1964 5.75811 10.4543 5.73581 10.5959L5.64572 11.169C5.61405 11.3687 5.58063 11.568 5.54555 11.7671C5.51634 11.9305 5.48656 12.0939 5.45621 12.2571C5.43486 12.3714 5.3942 12.5882 5.36579 12.739C5.33601 12.8969 5.30529 13.0548 5.27371 13.2124C5.25146 13.322 5.22689 13.4491 5.21913 13.4948C5.21127 13.5405 5.1859 13.6723 5.1626 13.7877C5.13936 13.903 5.12033 14.0095 5.12033 14.0244V14.0513H5.51927V14.0514ZM9.93517 14.0514H10.2883L10.2982 14.0251C10.3038 14.0106 10.3082 13.9727 10.3082 13.9409C10.3082 13.909 10.3305 13.7433 10.3575 13.5726C10.4195 13.1837 10.483 12.7951 10.548 12.4067C10.5759 12.2431 10.6052 12.0797 10.6361 11.9167C10.6622 11.7797 10.7023 11.5665 10.7252 11.4433C10.7481 11.3199 10.7932 11.0853 10.8253 10.9217C10.8575 10.7583 10.8878 10.6179 10.8926 10.6099L10.9016 10.5953L10.5445 10.5998L10.1874 10.6042L10.1576 10.8203C10.1413 10.939 10.1055 11.1746 10.0781 11.3436C10.0508 11.5126 10.0094 11.7706 9.9862 11.9167C9.95808 12.0914 9.92807 12.2659 9.89625 12.44C9.86998 12.5816 9.82974 12.7984 9.80678 12.9218C9.78386 13.0452 9.74272 13.262 9.71536 13.4036C9.688 13.5452 9.65131 13.7321 9.63379 13.8189C9.61623 13.9058 9.59743 13.9936 9.59194 14.0141L9.58205 14.0514H9.93517V14.0514ZM18.1943 14.0514H18.5448L18.5553 13.9013C18.5612 13.8188 18.581 13.6524 18.5994 13.5317C18.6179 13.4109 18.6557 13.1701 18.6834 12.9965C18.7184 12.7819 18.7566 12.5678 18.7979 12.3543C18.8332 12.1748 18.873 11.9963 18.8864 11.9577C18.8999 11.9192 18.9109 11.8773 18.9109 11.8649C18.9109 11.8523 18.9373 11.7841 18.9695 11.7133C19.0017 11.6424 19.0617 11.534 19.1028 11.4722L19.1777 11.3599L19.2778 11.266L19.378 11.1722L19.5015 11.1126L19.625 11.0528L19.8138 11.0538L20.0025 11.0548L20.0953 11.0829C20.1464 11.0983 20.1926 11.1109 20.1979 11.1109C20.2033 11.1109 20.2077 11.0933 20.2077 11.0717C20.2077 11.0502 20.2262 10.9408 20.2488 10.8286C20.2714 10.7164 20.2898 10.62 20.2898 10.6142C20.2898 10.6084 20.2363 10.5871 20.1708 10.567C20.1053 10.5469 20.0148 10.5258 19.9697 10.5201L19.8876 10.5099L19.7809 10.5289C19.7222 10.5395 19.635 10.5626 19.587 10.5805C19.5389 10.5984 19.4597 10.6388 19.4109 10.6704C19.3621 10.702 19.2861 10.7636 19.2422 10.8073C19.1981 10.851 19.1241 10.939 19.0776 11.003C19.0414 11.0527 19.0054 11.1025 18.9696 11.1525L18.9461 11.1857L18.9604 11.1193C18.9683 11.0827 18.9901 10.963 19.009 10.8534C19.0278 10.7438 19.0473 10.6409 19.0519 10.625L19.0608 10.5959H18.4346V10.636C18.4346 10.658 18.4161 10.7907 18.3936 10.9308C18.371 11.0711 18.3337 11.3052 18.3109 11.4515C18.288 11.5977 18.2472 11.8518 18.2204 12.0163C18.1919 12.191 18.1617 12.3654 18.13 12.5396C18.0682 12.8721 18.005 13.2044 17.9404 13.5364C17.9127 13.678 17.8796 13.8452 17.8669 13.9081C17.8541 13.9709 17.8437 14.0288 17.8437 14.0368V14.0514H18.1943ZM26.515 14.0514H26.8734V13.8294L26.9146 13.5541C26.9374 13.4028 26.9748 13.163 26.998 13.0214C27.021 12.8798 27.0498 12.7004 27.0619 12.6227C27.074 12.5451 27.1061 12.3769 27.133 12.249C27.1602 12.121 27.1939 11.9827 27.2082 11.9416C27.2225 11.9005 27.2342 11.8573 27.2343 11.8457C27.2345 11.8341 27.265 11.7595 27.3022 11.6799L27.3699 11.5351L27.4592 11.4151L27.5485 11.2951L27.6461 11.2208C27.6998 11.1799 27.7862 11.1258 27.8381 11.1003L27.9324 11.0541L28.1375 11.0555L28.3428 11.0569L28.4236 11.0831L28.5043 11.1094L28.518 11.1009L28.5316 11.0923L28.5324 11.0394C28.5327 11.0102 28.5503 10.9017 28.5713 10.7983L28.6098 10.6102L28.5666 10.5931C28.5252 10.5777 28.4835 10.5632 28.4413 10.5499L28.3593 10.5237L28.2115 10.5242L28.0638 10.5245L27.9433 10.5675L27.8229 10.6103L27.7325 10.6655L27.6421 10.7207L27.5246 10.8453L27.407 10.9699L27.3439 11.0665C27.3092 11.1196 27.2786 11.1608 27.2759 11.1579C27.2732 11.155 27.2922 11.0442 27.3179 10.9117C27.3436 10.7792 27.365 10.654 27.3654 10.6334L27.3661 10.596H26.7586V10.6066C26.7586 10.6124 26.7435 10.719 26.725 10.8433C26.7065 10.9678 26.6692 11.2078 26.6424 11.3768C26.6101 11.579 26.5774 11.7812 26.5443 11.9832C26.5155 12.1579 26.4853 12.3323 26.4537 12.5065C26.4309 12.6298 26.3904 12.8467 26.3637 12.9883C26.3371 13.1299 26.2932 13.358 26.2663 13.495L26.1871 13.8978L26.1567 14.0514H26.515V14.0514ZM10.6297 9.99759L10.7293 9.99797L10.8085 9.97067L10.8878 9.94336L10.9579 9.87136L11.0281 9.79941L11.065 9.70346L11.1019 9.60755L11.1032 9.46633L11.1045 9.3252L11.0717 9.27007L11.0389 9.21493L10.9817 9.17919L10.9246 9.14336H10.6777L10.5937 9.18144L10.5097 9.21943L10.4609 9.27232L10.4121 9.3252L10.3738 9.41661L10.3355 9.50791L10.3282 9.65024L10.321 9.79256L10.3566 9.86336L10.3923 9.93407L10.4612 9.96568L10.53 9.99725L10.6297 9.99759Z" fill="#B3131B"/>
</svg>
