<svg width="37" height="24" viewBox="0 0 37 24" fill="none" xmlns="http://www.w3.org/2000/svg">
<path d="M0 4C0 1.79086 1.79086 0 4 0H33C35.2091 0 37 1.79086 37 4V20C37 22.2091 35.2091 24 33 24H4C1.79086 24 0 22.2091 0 20V4Z" fill="white"/>
<path d="M4 0.25H33C35.0711 0.25 36.75 1.92893 36.75 4V20C36.75 22.0711 35.0711 23.75 33 23.75H4C1.92893 23.75 0.25 22.0711 0.25 20V4C0.25 1.92893 1.92893 0.25 4 0.25Z" stroke="#0C0C0C" stroke-opacity="0.08" stroke-width="0.5"/>
<path d="M7.98724 8.15282C7.58882 7.87567 7.06892 7.73676 6.42754 7.73676H3.94446C3.74784 7.73676 3.63921 7.83626 3.61858 8.03503L2.60986 14.4421C2.59937 14.505 2.61493 14.5625 2.65639 14.6149C2.69761 14.6673 2.74946 14.6934 2.81155 14.6934H3.991C4.19787 14.6934 4.31157 14.5941 4.33244 14.395L4.61175 12.6677C4.62194 12.584 4.65833 12.516 4.72042 12.4636C4.78247 12.4112 4.86007 12.377 4.95319 12.3613C5.04631 12.3458 5.13411 12.3379 5.21703 12.3379C5.29971 12.3379 5.39795 12.3432 5.51194 12.3536C5.62564 12.3641 5.69812 12.3692 5.72919 12.3692C6.6189 12.3692 7.31725 12.1155 7.82429 11.6076C8.3311 11.0999 8.58479 10.3959 8.58479 9.49543C8.58479 8.87776 8.38546 8.43021 7.98724 8.15263V8.15282ZM6.70694 10.0767C6.65505 10.4431 6.52071 10.6838 6.30345 10.799C6.08615 10.9144 5.77577 10.9717 5.37233 10.9717L4.86017 10.9874L5.12405 9.30708C5.14464 9.19202 5.21186 9.13442 5.32575 9.13442H5.62071C6.03435 9.13442 6.33457 9.19476 6.5208 9.31495C6.70694 9.43543 6.76903 9.68944 6.70694 10.0767Z" fill="#003087"/>
<path d="M34.1913 7.73663H33.043C32.9289 7.73663 32.8618 7.79423 32.8413 7.90939L31.8325 14.4422L31.8169 14.4736C31.8169 14.5262 31.8376 14.5757 31.8791 14.6228C31.9203 14.6698 31.9722 14.6934 32.0342 14.6934H33.0586C33.2549 14.6934 33.3636 14.5942 33.3846 14.3951L34.3933 7.97222V7.95662C34.3932 7.81007 34.3257 7.73678 34.1913 7.73678V7.73663Z" fill="#009CDE"/>
<path d="M20.3172 10.2653C20.3172 10.213 20.2964 10.1632 20.2552 10.1162C20.2137 10.0691 20.1672 10.0454 20.1155 10.0454H18.9206C18.8066 10.0454 18.7135 10.098 18.6412 10.2024L16.9962 12.6523L16.3134 10.2967C16.2614 10.1293 16.1477 10.0454 15.9719 10.0454H14.8079C14.756 10.0454 14.7094 10.069 14.6683 10.1162C14.6268 10.1632 14.6062 10.2131 14.6062 10.2653C14.6062 10.2864 14.7071 10.5951 14.9088 11.1918C15.1105 11.7886 15.3278 12.4325 15.5606 13.1235C15.7934 13.8144 15.9149 14.181 15.9253 14.2226C15.0769 15.3952 14.6528 16.0235 14.6528 16.1071C14.6528 16.2433 14.72 16.3113 14.8545 16.3113H16.0495C16.1633 16.3113 16.2564 16.2591 16.3289 16.1543L20.2863 10.3751C20.3069 10.3543 20.3172 10.3178 20.3172 10.2652V10.2653Z" fill="#003087"/>
<path d="M31.4447 10.0455H30.2652C30.1202 10.0455 30.0326 10.2182 30.0015 10.5637C29.7322 10.1451 29.2411 9.93549 28.5271 9.93549C27.7821 9.93549 27.1483 10.2182 26.626 10.7835C26.1034 11.3489 25.8423 12.0138 25.8423 12.778C25.8423 13.3958 26.0207 13.8878 26.3776 14.2541C26.7345 14.6208 27.213 14.8037 27.8133 14.8037C28.1132 14.8037 28.4184 14.7408 28.7288 14.6153C29.0392 14.4897 29.2821 14.3223 29.4583 14.1128C29.4583 14.1233 29.4478 14.1703 29.4273 14.254C29.4064 14.3379 29.3962 14.4009 29.3962 14.4424C29.3962 14.6102 29.4633 14.6937 29.598 14.6937H30.6689C30.8652 14.6937 30.9792 14.5944 31.0101 14.3953L31.6465 10.2966C31.6567 10.2338 31.6412 10.1763 31.6 10.1239C31.5584 10.0717 31.5068 10.0455 31.4447 10.0455ZM29.4195 13.1391C29.1556 13.4009 28.8375 13.5317 28.4651 13.5317C28.1649 13.5317 27.922 13.4481 27.7356 13.2805C27.5493 13.1133 27.4562 12.883 27.4562 12.5895C27.4562 12.2024 27.5856 11.8751 27.8443 11.6081C28.1026 11.3411 28.4237 11.2076 28.8065 11.2076C29.0959 11.2076 29.3365 11.294 29.5281 11.4667C29.7193 11.6394 29.8153 11.8777 29.8153 12.1813C29.8152 12.5582 29.6833 12.8775 29.4195 13.1391Z" fill="#009CDE"/>
<path d="M13.8147 10.0455H12.6352C12.4902 10.0455 12.4024 10.2182 12.3713 10.5637C12.092 10.1451 11.6005 9.93549 10.897 9.93549C10.152 9.93549 9.51826 10.2182 8.99585 10.7835C8.47329 11.3489 8.21216 12.0138 8.21216 12.778C8.21216 13.3958 8.39066 13.8878 8.74761 14.2541C9.10457 14.6208 9.58296 14.8037 10.1831 14.8037C10.4727 14.8037 10.7729 14.7408 11.0832 14.6153C11.3936 14.4897 11.6419 14.3223 11.8281 14.1128C11.7866 14.2383 11.7661 14.3483 11.7661 14.4424C11.7661 14.6102 11.8333 14.6937 11.9678 14.6937H13.0386C13.2351 14.6937 13.349 14.5944 13.3801 14.3953L14.0163 10.2966C14.0265 10.2338 14.011 10.1763 13.9698 10.1239C13.9284 10.0717 13.8767 10.0455 13.8147 10.0455ZM11.7894 13.1469C11.5255 13.4038 11.202 13.5317 10.8195 13.5317C10.5193 13.5317 10.2787 13.4481 10.0978 13.2805C9.91662 13.1133 9.82616 12.883 9.82616 12.5895C9.82616 12.2024 9.95543 11.8751 10.2142 11.6081C10.4727 11.3411 10.7934 11.2076 11.1764 11.2076C11.4659 11.2076 11.7065 11.294 11.8981 11.4667C12.0893 11.6395 12.1852 11.8778 12.1852 12.1814C12.1852 12.5687 12.0532 12.8907 11.7894 13.1469Z" fill="#003087"/>
<path d="M25.6172 8.15282C25.2188 7.87567 24.699 7.73676 24.0575 7.73676H21.5899C21.3829 7.73676 21.269 7.83626 21.2485 8.03503L20.2397 14.4421C20.2293 14.505 20.2448 14.5626 20.2863 14.6149C20.3273 14.6673 20.3793 14.6934 20.4414 14.6934H21.714C21.8381 14.6934 21.9208 14.6254 21.9623 14.4893L22.2417 12.6677C22.2519 12.584 22.2882 12.516 22.3503 12.4636C22.4124 12.4112 22.4899 12.377 22.5831 12.3613C22.6762 12.3458 22.7639 12.3379 22.847 12.3379C22.9296 12.3379 23.0279 12.3432 23.1417 12.3536C23.2555 12.3641 23.3282 12.3692 23.359 12.3692C24.2489 12.3692 24.9471 12.1155 25.4541 11.6076C25.9611 11.0999 26.2146 10.3959 26.2146 9.49543C26.2147 8.87781 26.0154 8.43026 25.6172 8.15268V8.15282ZM24.0265 10.7362C23.7988 10.8932 23.4574 10.9717 23.0022 10.9717L22.5056 10.9874L22.7694 9.30708C22.7899 9.19202 22.8571 9.13442 22.9711 9.13442H23.2504C23.478 9.13442 23.659 9.14488 23.7937 9.16576C23.928 9.18688 24.0575 9.25212 24.1817 9.36204C24.3059 9.472 24.3679 9.6317 24.3679 9.84107C24.3679 10.2808 24.254 10.5791 24.0265 10.7362Z" fill="#009CDE"/>
</svg>
