<svg width="37" height="24" viewBox="0 0 37 24" fill="none" xmlns="http://www.w3.org/2000/svg">
<path d="M0 4C0 1.79086 1.79086 0 4 0H33C35.2091 0 37 1.79086 37 4V20C37 22.2091 35.2091 24 33 24H4C1.79086 24 0 22.2091 0 20V4Z" fill="white"/>
<path d="M4 0.25H33C35.0711 0.25 36.75 1.92893 36.75 4V20C36.75 22.0711 35.0711 23.75 33 23.75H4C1.92893 23.75 0.25 22.0711 0.25 20V4C0.25 1.92893 1.92893 0.25 4 0.25Z" stroke="#0C0C0C" stroke-opacity="0.08" stroke-width="0.5"/>
<path d="M20.9508 12C20.9508 15.866 17.8278 19 13.9754 19C10.123 19 7 15.866 7 12C7 8.13401 10.123 5 13.9754 5C17.8278 5 20.9508 8.13401 20.9508 12Z" fill="#ED0006"/>
<path d="M30.0001 12C30.0001 15.866 26.8771 19 23.0247 19C19.1723 19 16.0493 15.866 16.0493 12C16.0493 8.13401 19.1723 5 23.0247 5C26.8771 5 30.0001 8.13401 30.0001 12Z" fill="#0099DF"/>
<path fill-rule="evenodd" clip-rule="evenodd" d="M18.5001 17.3277C19.9998 16.0438 20.9508 14.1333 20.9508 12C20.9508 9.86662 19.9998 7.95617 18.5001 6.67224C17.0003 7.95617 16.0493 9.86662 16.0493 12C16.0493 14.1333 17.0003 16.0438 18.5001 17.3277Z" fill="#6C6BBD"/>
</svg>
