<svg width="37" height="24" viewBox="0 0 37 24" fill="none" xmlns="http://www.w3.org/2000/svg">
<path d="M0 4C0 1.79086 1.79086 0 4 0H33C35.2091 0 37 1.79086 37 4V20C37 22.2091 35.2091 24 33 24H4C1.79086 24 0 22.2091 0 20V4Z" fill="#0079BE"/>
<path d="M4 0.25H33C35.0711 0.25 36.75 1.92893 36.75 4V20C36.75 22.0711 35.0711 23.75 33 23.75H4C1.92893 23.75 0.25 22.0711 0.25 20V4C0.25 1.92893 1.92893 0.25 4 0.25Z" stroke="#0C0C0C" stroke-opacity="0.08" stroke-width="0.5"/>
<path d="M28.458 12.0696C28.458 7.29767 24.5218 3.99935 20.2089 4.00079H16.4974C12.1332 3.99921 8.54102 7.29863 8.54102 12.0696C8.54102 16.4342 12.1332 20.0203 16.4974 19.9992H20.2089C24.5215 20.0201 28.458 16.4331 28.458 12.0696Z" fill="white"/>
<path d="M16.521 4.67664C12.5331 4.67793 9.30173 7.95542 9.30078 12.0005C9.30173 16.0449 12.5333 19.3219 16.521 19.3234C20.5099 19.3221 23.7422 16.0448 23.7426 12.0005C23.7421 7.95542 20.5099 4.67808 16.521 4.67664Z" fill="#0079BE"/>
<path d="M11.957 11.9808C11.9608 10.0041 13.1783 8.31853 14.8952 7.64879V16.3118C13.1783 15.6423 11.9608 13.9577 11.957 11.9808ZM18.1711 16.3139V7.6485C19.8886 8.31666 21.1081 10.0032 21.1112 11.9808C21.1081 13.959 19.8886 15.6443 18.1711 16.3137V16.3139Z" fill="white"/>
</svg>
