<svg width="37" height="24" viewBox="0 0 37 24" fill="none" xmlns="http://www.w3.org/2000/svg">
<path d="M0 4C0 1.79086 1.79086 0 4 0H33C35.2091 0 37 1.79086 37 4V20C37 22.2091 35.2091 24 33 24H4C1.79086 24 0 22.2091 0 20V4Z" fill="white"/>
<path d="M4 0.25H33C35.0711 0.25 36.75 1.92893 36.75 4V20C36.75 22.0711 35.0711 23.75 33 23.75H4C1.92893 23.75 0.25 22.0711 0.25 20V4C0.25 1.92893 1.92893 0.25 4 0.25Z" stroke="#0C0C0C" stroke-opacity="0.08" stroke-width="0.5"/>
<path d="M5.42015 12.3816C5.19246 12.4104 4.79385 12.4968 4.56611 12.6984C3.88289 13.3032 4.28145 14.3687 5.6764 14.3687C6.47346 14.3687 7.27058 13.8503 7.89687 13.0439C6.98591 12.6119 6.24572 12.2951 5.42015 12.3816Z" fill="#2BA6DF"/>
<path d="M10.5226 13.1232C11.8036 13.5552 12.0883 13.584 12.0883 13.584V8.97611C12.0883 8.19855 11.462 7.565 10.6649 7.565H4.68659C3.91794 7.565 3.26318 8.1986 3.26318 8.9762V15.0242C3.26318 15.8018 3.88948 16.4353 4.68659 16.4353H10.6649C11.4335 16.4353 12.0883 15.8017 12.0883 15.0241V14.9666C12.0883 14.9666 9.8109 14.0162 8.64369 13.4402C7.87509 14.3906 6.8787 14.9954 5.82539 14.9954C4.06039 14.9954 3.46256 13.4402 4.31659 12.4322C4.48736 12.2018 4.80053 12.0002 5.28447 11.8851C6.02466 11.7122 7.22033 12.0002 8.33057 12.3747C8.5298 12.0002 8.70062 11.5971 8.81451 11.1651H5.36991V10.8195H7.1349V10.1283H4.97135V9.7827H7.1349V8.88995C7.1349 8.88995 7.1349 8.74595 7.27721 8.74595H8.13129V9.81155H10.2664V10.1284H8.13129V10.7619H9.86783C9.69706 11.4531 9.44081 12.0867 9.12764 12.6338C9.69701 12.8354 10.181 13.0083 10.5226 13.1234V13.1232Z" fill="#2BA6DF"/>
<path d="M16.1513 9.65856L18.0301 13.7768H17.0338L16.5214 12.6824H14.9841L14.4717 13.7768H13.8169L15.7242 9.77371C15.7242 9.77371 15.7811 9.65851 15.895 9.65851H16.1513L16.1513 9.65856ZM15.1549 12.308H16.3505L15.7527 11.012L15.1549 12.308ZM19.303 13.8095H18.3921V9.89284C18.3921 9.77769 18.449 9.72 18.5913 9.72H19.303V13.8095ZM21.0111 13.7828H20.1002V10.8165C20.1002 10.7013 20.157 10.6436 20.2993 10.6436H21.0111V13.7828ZM22.125 10.7052H22.7229V10.9932C22.8367 10.9068 22.9506 10.8203 23.0929 10.7916C23.2353 10.734 23.3776 10.7052 23.5769 10.7052C23.7761 10.7052 23.947 10.734 24.0894 10.8203C24.2601 10.9068 24.374 10.9932 24.4878 11.1372C24.6017 11.2812 24.6871 11.4252 24.7441 11.598C24.801 11.7708 24.8294 11.9436 24.8294 12.1451C24.8294 12.4043 24.801 12.6347 24.7157 12.8363C24.6302 13.0379 24.5448 13.2395 24.4025 13.3835C24.2601 13.5275 24.1178 13.6715 23.9185 13.7579C23.7192 13.8443 23.52 13.8731 23.2922 13.8731H22.979C22.8937 13.8731 22.8083 13.8442 22.7229 13.8155V14.8523H21.8118V11.0795C21.7834 10.7052 21.9257 10.7052 22.125 10.7052ZM22.7228 12.9515C22.7228 13.0379 22.7228 13.0955 22.7513 13.1531C22.7798 13.2107 22.8083 13.2683 22.8651 13.3259C22.922 13.3835 22.979 13.4123 23.036 13.4411C23.0929 13.4699 23.1783 13.4699 23.2638 13.4699C23.3491 13.4699 23.4061 13.4411 23.4915 13.3835C23.5484 13.3259 23.6338 13.2683 23.6624 13.1531C23.6908 13.0379 23.7477 12.9515 23.7761 12.8075C23.8047 12.6635 23.8331 12.5483 23.8331 12.3755C23.8331 12.1739 23.8331 12.0011 23.8046 11.8571C23.7761 11.7131 23.7476 11.5979 23.6908 11.4827C23.6338 11.3963 23.5769 11.3099 23.52 11.2523C23.463 11.1947 23.3776 11.1659 23.2922 11.1659C23.2353 11.1659 23.1783 11.1659 23.1214 11.1947C23.0644 11.2236 23.0076 11.2523 22.979 11.2811C22.9221 11.3099 22.8937 11.3676 22.8367 11.3963C22.7797 11.4539 22.7513 11.4827 22.7228 11.5403V12.9515V12.9515ZM26.5665 10.7052C26.7942 10.7052 26.965 10.734 27.1358 10.7628C27.2781 10.7916 27.4205 10.8492 27.5344 10.9356C27.6482 11.022 27.7051 11.1084 27.7621 11.1948C27.819 11.31 27.8475 11.4252 27.8475 11.5403V13.8155H26.9365V13.5851C26.8796 13.6427 26.8228 13.6715 26.7942 13.7002L26.6234 13.7867C26.5665 13.8155 26.5095 13.8442 26.4242 13.8442C26.3387 13.8731 26.2533 13.8731 26.1679 13.8731C26.0256 13.8731 25.9118 13.8442 25.7978 13.8155C25.684 13.7867 25.5986 13.7291 25.5132 13.6427C25.4277 13.5851 25.3708 13.4987 25.3423 13.3835C25.3138 13.2971 25.2854 13.1819 25.2854 13.0667C25.2854 12.9514 25.3139 12.8362 25.3423 12.7499C25.3708 12.6634 25.4561 12.577 25.5132 12.4907C25.57 12.4042 25.6839 12.3467 25.7693 12.2891C25.8832 12.2315 25.9686 12.1739 26.111 12.1162C26.2247 12.0587 26.3386 12.0299 26.481 11.9723C26.5949 11.9435 26.7372 11.8859 26.8511 11.8571L26.9649 11.8283V11.5115C26.9649 11.4251 26.9649 11.3387 26.9365 11.2523L26.851 11.0795C26.8226 11.0507 26.7657 10.9931 26.7373 10.9931C26.6803 10.9643 26.6234 10.9643 26.5664 10.9643C26.5664 10.9643 26.0824 10.9643 25.6554 11.3387L25.4561 11.0218C25.3709 11.0795 25.8833 10.7052 26.5665 10.7052ZM26.8795 12.2315C26.7942 12.2604 26.7087 12.3179 26.6234 12.3755L26.3672 12.5484C26.2818 12.6059 26.2249 12.6635 26.1964 12.7499C26.1395 12.8075 26.1395 12.8939 26.1395 12.9515C26.1395 13.0091 26.1395 13.0667 26.1679 13.1244C26.1964 13.1819 26.1964 13.2108 26.2248 13.2684C26.2534 13.3259 26.2818 13.3259 26.3102 13.3548C26.3387 13.3836 26.3672 13.3836 26.4241 13.3836C26.5095 13.3836 26.5665 13.3548 26.6518 13.326L26.9081 13.1532V12.2316L26.8795 12.2315ZM29.0879 14.8235H28.49L28.4615 14.2763C28.4615 14.2763 29.2017 14.3051 29.4294 14.0171C29.5149 13.9019 29.5717 13.5851 29.5717 13.5851L28.0915 10.7052H29.0878L30.0273 12.5772L30.8529 10.7052H31.5076L29.9988 14.1035C29.9419 14.2187 29.7142 14.8235 29.0879 14.8235Z" fill="#3F3A39"/>
<path d="M20.5585 10.2048C20.8101 10.2048 21.014 10.0221 21.014 9.79679C21.014 9.57146 20.8101 9.38879 20.5585 9.38879C20.307 9.38879 20.103 9.57146 20.103 9.79679C20.103 10.0221 20.307 10.2048 20.5585 10.2048Z" fill="#2BA6DF"/>
<path d="M32.4308 8.29965H32.1177V8.242H32.8008V8.29965H32.4878V9.1924H32.4023V8.29965H32.4308ZM32.9392 8.242H33.053L33.2523 8.7892L33.3377 8.9908C33.3662 8.9332 33.3946 8.8468 33.4231 8.7892L33.6223 8.242H33.7362V9.2212H33.6224V8.3572L33.5371 8.58765L33.3378 9.16365H33.2809L33.0816 8.58765L32.9962 8.3572V9.2212H32.9108V8.242H32.9392Z" fill="#3F3A39"/>
</svg>
