<svg preserveAspectRatio="none" width="100%" height="100%" overflow="visible" style="display: block;" viewBox="0 0 24.9999 8" fill="none" xmlns="http://www.w3.org/2000/svg">
<path id="visa-logo" fill-rule="evenodd" clip-rule="evenodd" d="M6.25026 7.93766H4.08667L2.46424 1.73149C2.38723 1.446 2.22372 1.19362 1.98321 1.07467C1.38297 0.775737 0.721549 0.537834 0 0.417848V0.17891H3.48538C3.96641 0.17891 4.32719 0.537834 4.38732 0.954682L5.22912 5.4314L7.39166 0.17891H9.49513L6.25026 7.93766ZM10.6976 7.93766H8.6543L10.3369 0.17891H12.3802L10.6976 7.93766ZM15.0238 2.32835C15.0839 1.91047 15.4447 1.67153 15.8656 1.67153C16.527 1.61154 17.2475 1.73152 17.8488 2.02942L18.2096 0.358924C17.6083 0.119986 16.9469 0 16.3466 0C14.3634 0 12.9203 1.0747 12.9203 2.56625C12.9203 3.70095 13.9425 4.29674 14.6641 4.65566C15.4447 5.01355 15.7453 5.25249 15.6852 5.61038C15.6852 6.14721 15.0839 6.38615 14.4837 6.38615C13.7621 6.38615 13.0406 6.20721 12.3802 5.90828L12.0194 7.57981C12.741 7.8777 13.5216 7.99769 14.2432 7.99769C16.4669 8.05665 17.8488 6.98298 17.8488 5.37144C17.8488 3.34202 15.0238 3.22307 15.0238 2.32835V2.32835ZM24.9999 7.93766L23.3774 0.17891H21.6347C21.274 0.17891 20.9132 0.417848 20.7929 0.775737L17.7886 7.93766H19.892L20.3119 6.804H22.8964L23.1369 7.93766H24.9999ZM21.9354 2.26838L22.5356 5.19252H20.853L21.9354 2.26838Z" fill="var(--fill-0, #172B85)"/>
</svg>
