<svg viewBox="0 0 37 24" xmlns="http://www.w3.org/2000/svg">
<rect width="37" height="24" rx="4" fill="white"/>
<rect x="0.25" y="0.25" width="36.5" height="23.5" rx="3.75" stroke="black" stroke-opacity="0.08" stroke-width="0.5"/>
<svg x="6" y="8" width="25" height="8" viewBox="0 0 25 8" fill="none">
<path fill-rule="evenodd" clip-rule="evenodd" d="M6.25 7.94H4.09L2.46 1.73C2.39 1.45 2.22 1.19 1.98 1.07C1.38 0.78 0.72 0.54 0 0.42V0.18H3.49C3.97 0.18 4.33 0.54 4.39 0.95L5.23 5.43L7.39 0.18H9.5L6.25 7.94ZM10.7 7.94H8.65L10.34 0.18H12.38L10.7 7.94ZM15.02 2.33C15.08 1.91 15.44 1.67 15.87 1.67C16.53 1.61 17.25 1.73 17.85 2.03L18.21 0.36C17.61 0.12 16.95 0 16.35 0C14.36 0 12.92 1.07 12.92 2.57C12.92 3.7 13.94 4.3 14.66 4.66C15.44 5.01 15.75 5.25 15.69 5.61C15.69 6.15 15.08 6.39 14.48 6.39C13.76 6.39 13.04 6.21 12.38 5.91L12.02 7.58C12.74 7.88 13.52 8 14.24 8C16.47 8.06 17.85 6.98 17.85 5.37C17.85 3.34 15.02 3.22 15.02 2.33ZM25 7.94L23.38 0.18H21.63C21.27 0.18 20.91 0.42 20.79 0.78L17.79 7.94H19.89L20.31 6.8H22.9L23.14 7.94H25ZM21.94 2.27L22.54 5.19H20.85L21.94 2.27Z" fill="#172B85"/>
</svg>
</svg>
